<svg version="1.1" xmlns="http://www.w3.org/2000/svg" viewBox="0 0 928 407">
  <!-- svg-source:excalidraw -->
  <defs>
    <style>
      @font-face {
        font-family: "Virgil";
        src: url("https://excalidraw.com/FG_Virgil.woff2");
      }
      @font-face {
        font-family: "Cascadia";
        src: url("https://excalidraw.com/Cascadia.woff2");
      }
    </style>
  </defs>
  <rect x="0" y="0" width="928" height="407" fill="#ffffff"></rect><g transform="translate(435.5 10) rotate(0 119 16)"><text x="0" y="23" font-family="Virgil" font-size="20px" fill="#000000" text-anchor="start" style="white-space: pre;" direction="ltr">Intl.getCanonicalLocales</text></g><g transform="translate(171 115) rotate(0 73.5 16)"><text x="0" y="23" font-family="Virgil" font-size="20px" fill="#000000" text-anchor="start" style="white-space: pre;" direction="ltr">Intl.PluralRules</text></g><g transform="translate(10 254) rotate(0 117.5 16)"><text x="0" y="23" font-family="Virgil" font-size="20px" fill="#000000" text-anchor="start" style="white-space: pre;" direction="ltr">Intl.RelativeTimeFormat</text></g><g transform="translate(616 112) rotate(0 51.5 16)"><text x="0" y="23" font-family="Virgil" font-size="20px" fill="#000000" text-anchor="start" style="white-space: pre;" direction="ltr">Intl.Locale</text></g><g transform="translate(386 118) rotate(0 86.5 16)"><text x="0" y="23" font-family="Virgil" font-size="20px" fill="#000000" text-anchor="start" style="white-space: pre;" direction="ltr">Intl.DisplayNames</text></g><g transform="translate(283 253) rotate(0 87.5 16)"><text x="0" y="23" font-family="Virgil" font-size="20px" fill="#000000" text-anchor="start" style="white-space: pre;" direction="ltr">Intl.NumberFormat</text></g><g transform="translate(771 111) rotate(0 73.5 16)"><text x="0" y="23" font-family="Virgil" font-size="20px" fill="#000000" text-anchor="start" style="white-space: pre;" direction="ltr">Intl.ListFormat</text></g><g><g transform="translate(410.2951605800539 38.94884472379459) rotate(0 -72.86816885520705 37.447526344470674)"><path d="M0.7951605800539254 -0.0036402169615030733 C-23.2624458508566 12.584252477496245, -121.0950779834762 63.63025550201226, -145.3120735287666 75.94620796514677 M-0.24651884475722907 -1.0511552762053906 C-24.422813389953227 11.172772744375594, -122.38573003998025 61.684835995451245, -146.531498290468 74.29353587806226" stroke="#000000" stroke-width="1" fill="none"></path></g><g transform="translate(410.2951605800539 38.94884472379459) rotate(0 -72.86816885520705 37.447526344470674)"><path d="M-126.22893686833716 51.35126226113968 C-129.11105185569795 57.67386024500016, -136.99161538090056 60.06393373706043, -146.8593187610246 74.07160163961352 M-126.97997389881796 52.04276392234348 C-130.52143581068785 57.35546036226092, -136.97181489979346 62.70414334961296, -147.18828633135183 74.4780143742636" stroke="#000000" stroke-width="1" fill="none"></path></g><g transform="translate(410.2951605800539 38.94884472379459) rotate(0 -72.86816885520705 37.447526344470674)"><path d="M-116.78701952580914 69.57131163765642 C-121.80488898203062 71.95783451133444, -131.7576111390248 70.34926755595473, -146.8593187610246 74.07160163961352 M-117.53805655628994 70.26281329886022 C-123.29955315171166 70.97356710969876, -132.11625415979853 71.75596333129222, -147.18828633135183 74.4780143742636" stroke="#000000" stroke-width="1" fill="none"></path></g></g><g><g transform="translate(193.1618395861238 163.8586617831141) rotate(0 -49.378849247580035 40.72433979548509)"><path d="M0.661839586123824 -1.1413382168859243 C-15.870447003586092 12.567347079887977, -82.23402616701026 68.69617816843088, -98.92453228491841 82.59001780785614 M-0.4498333605006337 0.8738552739098671 C-17.08818851247976 14.166971273608496, -82.81349284294 66.8202643646672, -99.41953808128386 80.58522145170713" stroke="#000000" stroke-width="1" fill="none"></path></g><g transform="translate(193.1618395861238 163.8586617831141) rotate(0 -49.378849247580035 40.72433979548509)"><path d="M-85.91962228722856 56.279047231366214 C-88.53714801180044 63.7370442937847, -94.11716062370789 72.22576459706512, -97.71090577043145 81.97549860831344 M-84.5106148133798 54.47881738486635 C-87.8426497179081 59.76273803404323, -91.05114614769752 66.18103123044872, -100.26356574486493 80.52587272971863" stroke="#000000" stroke-width="1" fill="none"></path></g><g transform="translate(193.1618395861238 163.8586617831141) rotate(0 -49.378849247580035 40.72433979548509)"><path d="M-72.97486159505527 72.20240030187887 C-79.8110342167358 74.59758909554908, -89.56485541761887 77.95210650458975, -97.71090577043145 81.97549860831344 M-71.56585412120651 70.40217045537901 C-77.42551838432226 72.34309090924202, -83.26738466168779 75.52207525743145, -100.26356574486493 80.52587272971863" stroke="#000000" stroke-width="1" fill="none"></path></g></g><g><g transform="translate(476.6746351854131 54.098577297106374) rotate(0 -6.465280410833657 32.25495404023678)"><path d="M0.06943917833268642 -0.9014227028936148 C-1.9800119883256686 9.860721161278587, -9.771406258859997 54.345526717168596, -11.749926563091595 65.41133078336716 M-1.3532439823821187 1.2397264327481388 C-3.658897721624626 11.567489087308449, -11.07611052009589 53.18613259938857, -13.000000000000018 63.556457776837064" stroke="#000000" stroke-width="1" fill="none"></path></g><g transform="translate(476.6746351854131 54.098577297106374) rotate(0 -6.465280410833657 32.25495404023678)"><path d="M-19.546708892765484 33.024768528020445 C-15.244711726157611 43.15493942950822, -13.364780126315278 56.11585864751288, -13.725500503554958 62.921650676317526 M-18.39181568912699 34.87460136176503 C-16.385745384167258 45.12667790269753, -15.249066703649078 56.11476135669899, -12.050024534575659 63.82214927606286" stroke="#000000" stroke-width="1" fill="none"></path></g><g transform="translate(476.6746351854131 54.098577297106374) rotate(0 -6.465280410833657 32.25495404023678)"><path d="M0.6425165506319104 36.70106807804556 C-2.0578638585480067 45.57252108524335, -7.154622684039582 57.263039715408354, -13.725500503554958 62.921650676317526 M1.7974097542704044 38.550900911790144 C-3.4547188668953774 47.55686519931837, -9.612862425805282 57.216618758173055, -12.050024534575659 63.82214927606286" stroke="#000000" stroke-width="1" fill="none"></path></g></g><g><g transform="translate(607.979036701098 52.6198090807535) rotate(0 22.740059840865456 29.549794708983967)"><path d="M-0.5209632989019155 -0.21940129436552525 C7.314491449110218 9.743538269757599, 38.45786646809433 49.30627273350642, 46.00108298063283 59.43734774990005 M1.4063922398351134 -1.3801909192465247 C9.214355153087535 8.734392958808066, 37.66920605162162 49.91930917964936, 45.305100349914326 60.47978033721445" stroke="#000000" stroke-width="1" fill="none"></path></g><g transform="translate(607.979036701098 52.6198090807535) rotate(0 22.740059840865456 29.549794708983967)"><path d="M20.296855432456017 44.17023277545987 C24.35791027273425 45.86314396566685, 31.55605557455328 51.8862886464682, 44.343490995671644 58.63464168868957 M20.074719710750163 43.45681031218438 C30.646872886804164 49.61279656242711, 38.02514520757964 55.61722392405645, 45.211373456958725 60.18893047738818" stroke="#000000" stroke-width="1" fill="none"></path></g><g transform="translate(607.979036701098 52.6198090807535) rotate(0 22.740059840865456 29.549794708983967)"><path d="M37.06005644199202 32.33321058659283 C37.47178559572508 36.50654746940633, 41.05417201065083 45.08289294696492, 44.343490995671644 58.63464168868957 M36.837920720286164 31.619788123317335 C41.39312749274028 42.14302058252034, 42.64252454437838 52.47523906902539, 45.211373456958725 60.18893047738818" stroke="#000000" stroke-width="1" fill="none"></path></g></g><g><g transform="translate(692.5 37) rotate(0 58.064150998462026 34.39556565273551)"><path d="M0.5403070863336326 0.3633644107729197 C20.034587969010076 11.762518751993777, 97.3509340143452 56.569139790907506, 116.76347241960465 68.17716673649848 M-0.635170422680676 -0.4914732189103961 C18.78558663458874 11.0591048996523, 96.64655550292383 57.83401496935635, 116.2162499762699 69.28260452438145" stroke="#000000" stroke-width="1" fill="none"></path></g><g transform="translate(692.5 37) rotate(0 58.064150998462026 34.39556565273551)"><path d="M87.34425747459517 64.98091226290471 C93.70369693312884 66.84660966789436, 105.10751328061589 65.69172093119936, 115.49493580494077 70.7262402954325 M87.50570143731073 64.04243650599874 C97.58111194648701 65.52806551715584, 108.77728198424074 68.64425510235392, 116.11043707370759 69.58798493862152" stroke="#000000" stroke-width="1" fill="none"></path></g><g transform="translate(692.5 37) rotate(0 58.064150998462026 34.39556565273551)"><path d="M97.82369793617156 47.3371788145068 C101.18387767921152 54.24586471253515, 109.6204517048393 58.086780169360516, 115.49493580494077 70.7262402954325 M97.98514189888712 46.39870305760083 C103.8958168538699 54.79614997919843, 111.03523598914023 64.74249732447961, 116.11043707370759 69.58798493862152" stroke="#000000" stroke-width="1" fill="none"></path></g></g><g><g transform="translate(268.5 168) rotate(0 34.866083234921064 37.90425578931345)"><path d="M-0.3087851520627737 1.0319247778505087 C11.42160189586381 13.378448575362565, 58.42405525085827 61.73768084608019, 70.04095162190497 74.175740974769 M1.7299639137648049 0.528081340882927 C13.335782873040685 12.998397880289703, 58.01806538860623 63.09104007849469, 69.11440575977787 75.280430237744" stroke="#000000" stroke-width="1" fill="none"></path></g><g transform="translate(268.5 168) rotate(0 34.866083234921064 37.90425578931345)"><path d="M44.34639751326974 61.26351127943087 C48.456945537608135 64.07593537075108, 58.124035841739136 69.98611512307903, 70.5496668398194 76.76802492232993 M42.37814446792688 61.720759534110016 C50.542307059969374 64.41573357939093, 58.06033691656357 68.75892728145676, 70.10084958763792 75.91044487057253" stroke="#000000" stroke-width="1" fill="none"></path></g><g transform="translate(268.5 168) rotate(0 34.866083234921064 37.90425578931345)"><path d="M59.597158726496694 47.53273253957158 C59.577378332203445 54.03453975781534, 65.10308714795784 63.67334604223599, 70.5496668398194 76.76802492232993 M57.62890568115383 47.98998079425073 C61.39373776206103 54.536504399532056, 64.57824883804575 62.78131236921668, 70.10084958763792 75.91044487057253" stroke="#000000" stroke-width="1" fill="none"></path></g></g><g transform="translate(342.5 365) rotate(0 106 16)"><text x="0" y="23" font-family="Virgil" font-size="20px" fill="#000000" text-anchor="start" style="white-space: pre;" direction="ltr">Intl.DateTimeFormat</text></g><g><g transform="translate(365.5 294) rotate(0 29.339463553670782 34.57497931037096)"><path d="M-0.1810040954500436 1.1513085309416053 C10.085138499364257 12.253836145376164, 50.43695404492319 56.07536915379266, 60.41409708224237 67.28025692142546 M-1.7351699749007823 0.7101415643468498 C8.512676193378866 11.895863924560448, 49.60273604955525 57.51851474775622, 59.68345258679241 68.43981705639511" stroke="#000000" stroke-width="1" fill="none"></path></g><g transform="translate(365.5 294) rotate(0 29.339463553670782 34.57497931037096)"><path d="M35.03853380678193 55.18844672477416 C37.34830427509789 56.8164472423988, 44.53318786126933 58.88617038182103, 58.663090140707794 66.5241821057722 M32.2254785587822 54.1985705299171 C39.482606573431774 57.39783083017643, 44.409032097605056 61.39514106856628, 60.346327096372846 68.05526901349425" stroke="#000000" stroke-width="1" fill="none"></path></g><g transform="translate(365.5 294) rotate(0 29.339463553670782 34.57497931037096)"><path d="M50.21471866839903 41.375285774728596 C49.54400556716718 45.76287386883657, 53.67184714818244 50.61507584818597, 58.663090140707794 66.5241821057722 M47.4016634203993 40.385409579871535 C51.382501377098265 46.66677424657879, 52.98132188006016 53.69282617171658, 60.346327096372846 68.05526901349425" stroke="#000000" stroke-width="1" fill="none"></path></g></g></svg>