<svg version="1.1" xmlns="http://www.w3.org/2000/svg" viewBox="0 0 842 546" width="842" height="546">
  <!-- svg-source:excalidraw -->
  
  <defs>
    <style>
      @font-face {
        font-family: "Virgil";
        src: url("https://excalidraw.com/FG_Virgil.woff2");
      }
      @font-face {
        font-family: "Cascadia";
        src: url("https://excalidraw.com/Cascadia.woff2");
      }
    </style>
  </defs>
  <rect x="0" y="0" width="842" height="546" fill="#ffffff"></rect><g transform="translate(490.5 10) rotate(0 119 16)"><text x="0" y="23" font-family="Virgil, Segoe UI Emoji" font-size="20px" fill="#000000" text-anchor="start" style="white-space: pre;" direction="ltr">Intl.getCanonicalLocales</text></g><g transform="translate(216 226) rotate(0 73.5 16)"><text x="0" y="23" font-family="Virgil, Segoe UI Emoji" font-size="20px" fill="#000000" text-anchor="start" style="white-space: pre;" direction="ltr">Intl.PluralRules</text></g><g transform="translate(10 504) rotate(0 117.5 16)"><text x="0" y="23" font-family="Virgil, Segoe UI Emoji" font-size="20px" fill="#000000" text-anchor="start" style="white-space: pre;" direction="ltr">Intl.RelativeTimeFormat</text></g><g transform="translate(562 107) rotate(0 51.5 16)"><text x="0" y="23" font-family="Virgil, Segoe UI Emoji" font-size="20px" fill="#000000" text-anchor="start" style="white-space: pre;" direction="ltr">Intl.Locale</text></g><g transform="translate(431 229) rotate(0 86.5 16)"><text x="0" y="23" font-family="Virgil, Segoe UI Emoji" font-size="20px" fill="#000000" text-anchor="start" style="white-space: pre;" direction="ltr">Intl.DisplayNames</text></g><g transform="translate(209 360) rotate(0 87.5 16)"><text x="0" y="23" font-family="Virgil, Segoe UI Emoji" font-size="20px" fill="#000000" text-anchor="start" style="white-space: pre;" direction="ltr">Intl.NumberFormat</text></g><g transform="translate(685 223) rotate(0 73.5 16)"><text x="0" y="23" font-family="Virgil, Segoe UI Emoji" font-size="20px" fill="#000000" text-anchor="start" style="white-space: pre;" direction="ltr">Intl.ListFormat</text></g><g><g transform="translate(239.16183958612385 407.85866178311414) rotate(0 -49.37884924758001 40.72433979548509)"><path d="M0.661839586123824 -1.1413382168859243 C-15.870447003586092 12.567347079887977, -82.23402616701026 68.69617816843088, -98.92453228491841 82.59001780785614 M-0.4498333605006337 0.8738552739098671 C-17.08818851247976 14.166971273608496, -82.81349284294 66.8202643646672, -99.41953808128386 80.58522145170713" stroke="#000000" stroke-width="1" fill="none"></path></g><g transform="translate(239.16183958612385 407.85866178311414) rotate(0 -49.37884924758001 40.72433979548509)"><path d="M-85.91962228722856 56.279047231366214 C-88.53714801180044 63.7370442937847, -94.11716062370789 72.22576459706512, -97.71090577043145 81.97549860831344 M-84.5106148133798 54.47881738486635 C-87.8426497179081 59.76273803404323, -91.05114614769752 66.18103123044872, -100.26356574486493 80.52587272971863" stroke="#000000" stroke-width="1" fill="none"></path></g><g transform="translate(239.16183958612385 407.85866178311414) rotate(0 -49.37884924758001 40.72433979548509)"><path d="M-72.97486159505527 72.20240030187887 C-79.8110342167358 74.59758909554908, -89.56485541761887 77.95210650458975, -97.71090577043145 81.97549860831344 M-71.56585412120651 70.40217045537901 C-77.42551838432226 72.34309090924202, -83.26738466168779 75.52207525743145, -100.26356574486493 80.52587272971863" stroke="#000000" stroke-width="1" fill="none"></path></g></g><g transform="translate(339.5 503) rotate(0 106 16)"><text x="0" y="23" font-family="Virgil, Segoe UI Emoji" font-size="20px" fill="#000000" text-anchor="start" style="white-space: pre;" direction="ltr">Intl.DateTimeFormat</text></g><g><g transform="translate(360.5 416) rotate(0 29.33946355367081 34.57497931037096)"><path d="M-0.1810040954500436 1.1513085309416053 C10.085138499364257 12.253836145376164, 50.43695404492319 56.07536915379266, 60.41409708224237 67.28025692142546 M-1.7351699749007823 0.7101415643468498 C8.512676193378866 11.895863924560448, 49.60273604955525 57.51851474775622, 59.68345258679241 68.43981705639511" stroke="#000000" stroke-width="1" fill="none"></path></g><g transform="translate(360.5 416) rotate(0 29.33946355367081 34.57497931037096)"><path d="M35.03853380678193 55.18844672477416 C37.34830427509789 56.8164472423988, 44.53318786126933 58.88617038182103, 58.663090140707794 66.5241821057722 M32.2254785587822 54.1985705299171 C39.482606573431774 57.39783083017643, 44.409032097605056 61.39514106856628, 60.346327096372846 68.05526901349425" stroke="#000000" stroke-width="1" fill="none"></path></g><g transform="translate(360.5 416) rotate(0 29.33946355367081 34.57497931037096)"><path d="M50.21471866839903 41.375285774728596 C49.54400556716718 45.76287386883657, 53.67184714818244 50.61507584818597, 58.663090140707794 66.5241821057722 M47.4016634203993 40.385409579871535 C51.382501377098265 46.66677424657879, 52.98132188006016 53.69282617171658, 60.346327096372846 68.05526901349425" stroke="#000000" stroke-width="1" fill="none"></path></g></g><g><g transform="translate(279.5 278) rotate(0 2.551833888031524 36.0578149573505)"><path d="M1.1757833015173673 1.035747544839978 C2.152000495915612 12.815938342486817, 3.979743759954969 58.61103678631285, 4.769736970588565 70.37330728061497 M0.3339308054745196 0.5339110605418682 C1.2271407381196817 12.490569775154194, 2.8179903649787104 60.07290788734953, 3.700803416520357 71.58171885415912" stroke="#000000" stroke-width="1" fill="none"></path></g><g transform="translate(279.5 278) rotate(0 2.551833888031524 36.0578149573505)"><path d="M-6.2887025659631135 43.580178263362 C-6.677363624315236 51.15771238579802, -2.164337316633455 56.286992311156666, 1.9150436974316833 71.17431872479618 M-7.877236054065371 43.4801740793022 C-5.748039268360875 50.101250601494506, -1.9696075595679714 55.27071684160656, 3.8407540206983684 71.13733313094825" stroke="#000000" stroke-width="1" fill="none"></path></g><g transform="translate(279.5 278) rotate(0 2.551833888031524 36.0578149573505)"><path d="M14.20462233197858 42.51076860694279 C9.52254105078498 50.51300205371894, 9.744890505631446 55.866183726687964, 1.9150436974316833 71.17431872479618 M12.616088843876323 42.41076442288299 C10.250340113138863 49.468013152051384, 9.53217204845813 54.872126880687276, 3.8407540206983684 71.13733313094825" stroke="#000000" stroke-width="1" fill="none"></path></g></g><g><g transform="translate(609.5 48) rotate(0 -0.1649819080485031 26.178316590706828)"><path d="M-0.12030459344387046 0.7769698709249495 C0.25493608216444663 9.519622159997622, 1.2439935912688573 43.5146441390117, 1.312639418244362 52.21735807359219 M-1.6426032343413681 0.13927510782144958 C-1.315882492850845 8.516187596858167, -0.21402864226760954 41.70340910021526, 0.5287296491954476 50.208896313449365" stroke="#000000" stroke-width="1" fill="none"></path></g><g transform="translate(609.5 48) rotate(0 -0.1649819080485031 26.178316590706828)"><path d="M-8.437158733815766 26.835083896323777 C-7.1418393022619675 30.44266726922139, -3.573172380133138 37.8202219377951, 0.31985567689873284 51.65337957873009 M-10.67386024466238 27.01645381937895 C-8.060024435854086 31.37392870230603, -5.429962458340371 37.12941178768589, 0.6225468757841737 50.86024097784422" stroke="#000000" stroke-width="1" fill="none"></path></g><g transform="translate(609.5 48) rotate(0 -0.1649819080485031 26.178316590706828)"><path d="M9.322752960595592 25.82988377281954 C6.677524534253664 29.64258164684713, 6.307641899984624 37.24305580785078, 0.31985567689873284 51.65337957873009 M7.086051449748977 26.01125369587471 C5.569862155040173 30.503519335957336, 4.069236522264918 36.492796809927896, 0.6225468757841737 50.86024097784422" stroke="#000000" stroke-width="1" fill="none"></path></g></g><g><g transform="translate(647.6782670389522 148.5) rotate(0 54.624312785225754 33.15615501238963)"><path d="M1.1845557779073717 -0.30804463326931 C19.358202647725076 10.81703836818536, 91.18245197315677 55.22434640626112, 108.9013167384823 66.36246346533298 M0.3473088319692761 -1.5153720110747964 C18.443265707511408 9.835997314344468, 90.68545382952296 56.26695505777063, 108.36146268985208 67.82768203585408" stroke="#000000" stroke-width="1" fill="none"></path></g><g transform="translate(647.6782670389522 148.5) rotate(0 54.624312785225754 33.15615501238963)"><path d="M78.60643444871857 62.42072022019295 C87.29889866186183 61.72510773587025, 95.99251414436453 66.64897381172143, 108.95201452813085 66.35546759038232 M79.52435947126105 61.579483368083515 C86.52927339925128 63.00521171863333, 92.11343944469317 63.9258037912266, 108.28575085095103 67.14150644361041" stroke="#000000" stroke-width="1" fill="none"></path></g><g transform="translate(647.6782670389522 148.5) rotate(0 54.624312785225754 33.15615501238963)"><path d="M89.75615572231519 45.19272794288604 C95.17859931721286 49.57377171612729, 100.65790298244448 59.46423182656996, 108.95201452813085 66.35546759038232 M90.67408074485766 44.351491090776605 C95.18649830637462 49.9271508584946, 98.13013014361563 54.92776446979447, 108.28575085095103 67.14150644361041" stroke="#000000" stroke-width="1" fill="none"></path></g></g><g><g transform="translate(605.5 149) rotate(0 -25.65491769730113 37.93783357693815)"><path d="M-0.7256368070840835 0.7856852442026139 C-9.367533468206723 13.325289526581765, -43.292558486262955 62.175976267457, -51.987577095627785 74.46601695120334 M1.0942651398573071 0.1525660520698875 C-7.605148557166879 12.917330330898986, -43.28727056050362 63.14944059609436, -52.40410053445957 75.72310110180639" stroke="#000000" stroke-width="1" fill="none"></path></g><g transform="translate(605.5 149) rotate(0 -25.65491769730113 37.93783357693815)"><path d="M-43.02400515710428 48.516440469321495 C-47.738829429360344 55.29428798932797, -49.96856182230848 63.68662742046912, -51.71644986881874 77.30838225035929 M-43.82283814733341 46.04916911899734 C-46.757409692648146 54.867991837492724, -47.90871689772315 60.744935534833154, -52.63079022332094 75.18513007461094" stroke="#000000" stroke-width="1" fill="none"></path></g><g transform="translate(605.5 149) rotate(0 -25.65491769730113 37.93783357693815)"><path d="M-26.33944569331279 60.464054368550315 C-35.79344801886096 63.69232919082926, -42.8391824929636 68.63598701138382, -51.71644986881874 77.30838225035929 M-27.13827868354192 57.99678301822616 C-34.407923950073844 63.68287097187086, -39.81906763812609 66.50939660555717, -52.63079022332094 75.18513007461094" stroke="#000000" stroke-width="1" fill="none"></path></g></g><g><g transform="translate(551.5 148) rotate(0 -110.09226845904254 36.45921355783008)"><path d="M-1.0139236539602279 0.09129968583583836 C-37.658845942219095 12.247523141900698, -183.73531272510687 60.31944636603197, -220.27286501824855 72.53270412385464 M0.6546276983711867 -0.9063719244394451 C-36.04940008003575 11.44873659426036, -183.9624707747406 61.80323249642117, -220.83916461645626 73.8247990400996" stroke="#000000" stroke-width="1" fill="none"></path></g><g transform="translate(551.5 148) rotate(0 -110.09226845904254 36.45921355783008)"><path d="M-197.20291077046124 56.368599591272 C-204.4527556810485 61.199195222843436, -209.3117561973121 64.10173635198983, -222.14521371006035 73.52900167717598 M-198.26241267918078 55.15196379037393 C-205.24632313094213 62.10850572245242, -214.61032742376173 69.68702947896799, -221.12545932262205 74.09303771122359" stroke="#000000" stroke-width="1" fill="none"></path></g><g transform="translate(551.5 148) rotate(0 -110.09226845904254 36.45921355783008)"><path d="M-190.69752594085506 75.83138383722635 C-199.6147062373607 75.42234031966439, -206.20667009860747 73.14020866265113, -222.14521371006035 73.52900167717598 M-191.7570278495746 74.61474803632828 C-201.19942762006937 74.16396202571035, -213.024254509774 74.38020660501661, -221.12545932262205 74.09303771122359" stroke="#000000" stroke-width="1" fill="none"></path></g></g></svg>