<svg version="1.1" xmlns="http://www.w3.org/2000/svg" viewBox="0 0 560 292.5">
  <!-- svg-source:excalidraw -->
  <defs>
    <style>
      @font-face {
        font-family: "Virgil";
        src: url("https://excalidraw.com/FG_Virgil.woff2");
      }
      @font-face {
        font-family: "Cascadia";
        src: url("https://excalidraw.com/Cascadia.woff2");
      }
    </style>
  </defs>
  <rect x="0" y="0" width="560" height="292.5" fill="#ffffff"></rect><g transform="translate(10 15) rotate(0 52 16)"><text x="0" y="23" font-family="Virgil, Segoe UI Emoji" font-size="20px" fill="#000000" text-anchor="start" style="white-space: pre;" direction="ltr">Application1</text></g><g transform="translate(208 10) rotate(0 58 16)"><text x="0" y="23" font-family="Virgil, Segoe UI Emoji" font-size="20px" fill="#000000" text-anchor="start" style="white-space: pre;" direction="ltr">Application2</text></g><g transform="translate(435 11) rotate(0 57.5 16)"><text x="0" y="23" font-family="Virgil, Segoe UI Emoji" font-size="20px" fill="#000000" text-anchor="start" style="white-space: pre;" direction="ltr">Application3</text></g><g transform="translate(50 77) rotate(0 39 16)"><text x="0" y="23" font-family="Virgil, Segoe UI Emoji" font-size="20px" fill="#000000" text-anchor="start" style="white-space: pre;" direction="ltr">Feature1</text></g><g transform="translate(210 82) rotate(0 45 16)"><text x="0" y="23" font-family="Virgil, Segoe UI Emoji" font-size="20px" fill="#000000" text-anchor="start" style="white-space: pre;" direction="ltr">Feature2</text></g><g transform="translate(424 87) rotate(0 44.5 16)"><text x="0" y="23" font-family="Virgil, Segoe UI Emoji" font-size="20px" fill="#000000" text-anchor="start" style="white-space: pre;" direction="ltr">Feature3</text></g><g transform="translate(157 218) rotate(0 43 16)"><text x="0" y="23" font-family="Virgil, Segoe UI Emoji" font-size="20px" fill="#000000" text-anchor="start" style="white-space: pre;" direction="ltr">Feature4</text></g><g transform="translate(57 114.5) rotate(0 38 17.5)"><path d="M-0.8779477346688509 0.5848997998982668 C30.0974331907928 -0.4525570705905557, 57.08240998722613 -2.049204869605601, 76.49811912886798 0.7084695864468813 M0.5743108177557588 0.5574838882312179 C17.539316843263805 -0.022005053386092155, 34.539640289731324 -0.2770769020169973, 75.4973389590159 0.04889065679162741 M75.08732630126178 0.3278882075101137 C75.19546880614944 8.650861830916256, 76.91720338952727 21.004065022803843, 74.14663405530155 35.17248346097767 M76.56801170948893 0.4932287400588393 C76.49947359054349 13.11983871413395, 75.53991006701253 27.939997844398025, 75.53670273069292 35.177513278089464 M76.40571732632816 35.38105918653309 C45.657798549532885 34.13736635733396, 17.876873104646798 36.42824220944196, 1.6455193888396025 33.86641867645085 M75.08188567403704 34.70337144192308 C49.23833542522043 35.63154525235295, 24.569567929394545 34.79236123636365, 0.7270073974505067 34.374082333408296 M-0.6437829602509737 34.952725725248456 C-2.0252758380491285 22.921388598624617, -0.7121220347005874 10.519524204544723, -1.0719362962991 0.5630413461476564 M-0.19494985695928335 34.57545471843332 C0.8613244424108416 27.1996733979322, 0.15509305694140496 18.709030589088798, -0.11665304657071829 -0.9592110151425004" stroke="#000000" stroke-width="1" fill="none"></path></g><g transform="translate(76 116) rotate(0 19 16)"><text x="19" y="23" font-family="Virgil, Segoe UI Emoji" font-size="20px" fill="#000000" text-anchor="middle" style="white-space: pre;" direction="ltr">lang</text></g><g transform="translate(221 118) rotate(0 38 17.5)"><path d="M-0.6633627284318209 -1.182264132425189 C21.548421459645034 0.7262534626945853, 43.80953540541232 -0.3317075840011239, 77.73113484494388 -0.3898997139185667 M0.0684821093454957 -0.30009978357702494 C19.456802813522522 -1.107493255957961, 39.071999776549646 -0.22271353445947173, 75.12702450994402 0.6001195078715682 M77.35996909253299 -0.9319343399256468 C74.81785755795427 10.624621347989887, 77.61366784018465 22.973430530168116, 75.05751956813037 36.52707322128117 M76.84573040250689 0.25225940998643637 C76.90867417394183 12.467348142992705, 76.00995793282054 25.400735788047314, 76.02333045843989 35.18455935176462 M75.6106244456023 35.45261366851628 C46.74442832171917 37.42160855937749, 16.47480316646397 33.90827565599233, -0.8778468836098909 36.45308126695454 M75.38231802824885 34.873541600070894 C46.52039580401033 34.58276706650853, 17.886143295653156 34.15351518705487, -0.11896737571805716 34.32580671366304 M-0.6656080950051546 33.431646006181836 C1.8747571277897805 23.69855378801003, -0.6236334871966391 13.329614478163418, 0.012620938941836357 1.2253436613827944 M-0.6629110192880034 35.62218794878572 C-0.18778167716227473 23.296272634062916, 0.2766364658717066 11.7376674618572, -0.6087984358891845 0.6907011931762099" stroke="#000000" stroke-width="1" fill="none"></path></g><g transform="translate(240 119.5) rotate(0 19 16)"><text x="19" y="23" font-family="Virgil, Segoe UI Emoji" font-size="20px" fill="#000000" text-anchor="middle" style="white-space: pre;" direction="ltr">lang</text></g><g transform="translate(440 118) rotate(0 38 17.5)"><path d="M-1.577584845945239 0.4019013773649931 C24.24076812937856 -0.1358161142095924, 49.93963143490255 -0.7020415833219886, 77.55124922282994 0.3512352239340544 M-0.8112592929974198 -0.2973322784528136 C16.48046598304063 -0.5014994934946299, 34.95515081565827 -0.05478440679609775, 76.32534248288721 0.6069914484396577 M74.58900280483067 1.7543919812887907 C74.53061859789304 9.770807495806368, 74.67102180900983 21.968938021920625, 74.10145999677479 34.57550431601703 M76.74117714818567 -0.6378799295052886 C77.07313506738282 12.179369979072362, 76.29134984747506 25.170487113296986, 76.07920161541551 34.141177722252905 M75.84946443326771 36.49765826575458 C56.259431627392765 33.76812873613089, 35.11399606578051 34.6851681901142, -0.06909148208796978 35.88506813161075 M76.92225948628038 35.38766224030405 C57.373633983172475 35.609394357651475, 37.87338551711291 35.23656560584903, -0.002557271160185337 35.557963826693594 M0.05273802764713764 36.71733255498111 C1.6962170590180903 27.395468001719564, 2.107810913445428 18.790840920992196, -0.04701410047709942 -1.4176441300660372 M-0.8257820541039109 35.674466350115836 C-1.0863753827754408 23.63937204470858, -0.10797345363534983 10.003547796979547, 0.2869444852694869 -0.90275155659765" stroke="#000000" stroke-width="1" fill="none"></path></g><g transform="translate(459 119.5) rotate(0 19 16)"><text x="19" y="23" font-family="Virgil, Segoe UI Emoji" font-size="20px" fill="#000000" text-anchor="middle" style="white-space: pre;" direction="ltr">lang</text></g><g transform="translate(162 243) rotate(0 38 17.5)"><path d="M0.05273802764713764 1.7173325549811125 C20.146036774665117 1.7996890744939447, 39.34390591047704 1.846636136509478, 75.9529858995229 -1.4176441300660372 M-0.8257820541039109 0.6744663501158357 C25.385937254317103 0.19179489098489277, 52.58508999627083 -1.3686835876852275, 76.28694448526949 -0.90275155659765 M74.0340897012502 -0.45603095181286335 C74.97385064694099 6.390307462308556, 77.63618264528922 15.796839891932905, 75.37991137988865 34.70221860520542 M76.86799368914217 0.9233685815706849 C75.97080658064223 13.709010877180845, 76.75000215754844 27.898714490234852, 76.9270464843139 34.4608443165198 M76.42761369235814 36.3405438195914 C51.42909477055073 34.13254954706878, 22.17345190159977 36.38969024311751, 0.5352323222905397 35.19942928664386 M75.39698881562799 35.047119178809226 C58.81571707371622 33.928984721153974, 41.331436870805916 35.77241211101413, 0.7632992630824447 34.21872825268656 M-1.5212676357477903 33.88995481841266 C1.3473728035110981 26.540216048713773, 0.22388860923238096 19.024475005455315, 1.6663242150098085 -0.863817261531949 M-0.7291836375370622 34.57663244847208 C-0.36648206287063656 27.338081249501556, 0.9426150185521692 18.578603575006127, -0.3987857038155198 0.21529112104326487" stroke="#000000" stroke-width="1" fill="none"></path></g><g transform="translate(181 244.5) rotate(0 19 16)"><text x="19" y="23" font-family="Virgil, Segoe UI Emoji" font-size="20px" fill="#000000" text-anchor="middle" style="white-space: pre;" direction="ltr">lang</text></g><g transform="translate(360 222.5) rotate(0 44.5 16)"><text x="0" y="23" font-family="Virgil, Segoe UI Emoji" font-size="20px" fill="#000000" text-anchor="start" style="white-space: pre;" direction="ltr">Feature5</text></g><g transform="translate(365 247.5) rotate(0 38 17.5)"><path d="M1.9250973630696535 -1.6251872647553682 C15.62932270243764 -1.1987496831640603, 34.77314040325582 1.735162176825106, 75.54497452266514 -0.5348164308816195 M-0.9995091194286942 0.6952960574999452 C22.96503825057298 0.24546787939965725, 45.438472911529246 -0.0018554250150918938, 76.23715216573328 -0.4278078889474273 M75.80428572185338 0.6760795842856169 C74.75309773865156 8.618459573481232, 75.72270932379179 16.738160043023527, 76.41374303586781 34.790084375068545 M75.43771583493799 -0.018931708298623562 C75.94561141864396 9.428305797744542, 76.06623861328698 17.25863904505968, 76.80329004582018 34.61380178574473 M77.27002383954823 36.320758832618594 C52.87201173603535 37.1895809436962, 32.38392890803516 34.05695303928107, 0.2575500775128603 35.19979162327945 M76.2689675455913 34.332393237389624 C52.616462209261954 34.88470208927989, 30.135136644355953 35.272424790114165, 0.5726282661780715 34.33903668168932 M-0.7506252955645323 33.566357804462314 C0.9669906724710018 20.266763334628195, -0.3517774115782231 9.273761806078252, -0.43208823911845684 -1.3313904870301485 M-0.7275862628594041 35.68350551370531 C-0.5619085463229567 24.062880092766136, 0.2940034536179155 12.503878245130181, -0.1620170110836625 -0.7231420194730163" stroke="#000000" stroke-width="1" fill="none"></path></g><g transform="translate(384 249) rotate(0 19 16)"><text x="19" y="23" font-family="Virgil, Segoe UI Emoji" font-size="20px" fill="#000000" text-anchor="middle" style="white-space: pre;" direction="ltr">lang</text></g><g><g transform="translate(91 71.5) rotate(0 -2.5782337754964715 -10.672166639044889)"><path d="M0.4183754783123732 -0.5972863834351301 C-0.2370549141118924 -4.277759095157186, -3.7127472617973885 -17.823074221735197, -4.41101479716599 -21.295273999497294 M-0.8211161249130965 1.703534319922328 C-1.628668762172262 -2.3898188172529142, -4.975558443193634 -18.851611399923762, -5.574843029305339 -23.04786759801209" stroke="#000000" stroke-width="1" fill="none"></path></g><g transform="translate(91 71.5) rotate(0 -2.5782337754964715 -10.672166639044889)"><path d="M-0.5325731377607767 -13.753313417916056 C-0.839416908743654 -15.655121785426466, -2.4218009737671498 -19.2650579756464, -4.57914141515955 -23.816427524601515 M-0.5321780983327746 -13.690942997577745 C-0.916566807986969 -15.349497103045017, -2.4018814949522556 -18.69695185167712, -5.8332039615982465 -22.719285803875618" stroke="#000000" stroke-width="1" fill="none"></path></g><g transform="translate(91 71.5) rotate(0 -2.5782337754964715 -10.672166639044889)"><path d="M-8.063007455868037 -12.418604385606793 C-6.419714325789025 -14.693866029764862, -6.043201769114052 -18.65100092113464, -4.579141415159549 -23.816427524601515 M-8.062612416440034 -12.356233965268482 C-6.561467507812859 -14.32793410271147, -6.1597179325685465 -18.009855843408413, -5.8332039615982465 -22.719285803875618" stroke="#000000" stroke-width="1" fill="none"></path></g></g><g><g transform="translate(185 210.5) rotate(0 -29.4415206040442 -21.332241038456573)"><path d="M0.7044988375157117 -1.136614279076457 C-9.324046458676458 -8.213273437942068, -49.06027436442673 -35.13717857611676, -59.107865299656986 -41.96587974242866 M-0.38477800212800495 0.8810592790693046 C-10.586330867633224 -6.553978189999858, -49.63053727470338 -36.06812054035564, -59.58754004560411 -43.54554135598242" stroke="#000000" stroke-width="1" fill="none"></path></g><g transform="translate(185 210.5) rotate(0 -29.4415206040442 -21.332241038456573)"><path d="M-32.79136380389045 -33.29204909461198 C-40.35920250990742 -37.319099850548795, -51.74707333217542 -40.610639838029925, -59.87476647108793 -44.25232588559389 M-30.35327518287758 -34.316224182533304 C-37.9543860849595 -36.45990574049643, -44.86834255667051 -38.197068176696646, -58.96226448494941 -42.86895299296826" stroke="#000000" stroke-width="1" fill="none"></path></g><g transform="translate(185 210.5) rotate(0 -29.4415206040442 -21.332241038456573)"><path d="M-45.13873607887557 -16.9011247677545 C-47.97565970921938 -27.370459991976688, -54.56512921088567 -37.03179520262569, -59.87476647108793 -44.25232588559389 M-42.7006474578627 -17.92529985567582 C-47.212199479340406 -23.931700208152414, -51.16033495723418 -29.605939003113505, -58.96226448494941 -42.86895299296826" stroke="#000000" stroke-width="1" fill="none"></path></g></g><g><g transform="translate(464 84.5) rotate(0 4.349438876155773 -15.697407859722176)"><path d="M0.3823945719748736 0.16838379912078372 C1.6373615422596535 -4.854326917603613, 5.790041029329101 -24.59613992162049, 7.254367359355092 -29.63319657035172 M-0.8759870070777834 -0.7888186516799034 C0.7898163337943455 -6.229084746483714, 7.926193700774261 -26.900536592248827, 9.57486475938931 -31.56319951856509" stroke="#000000" stroke-width="1" fill="none"></path></g><g transform="translate(464 84.5) rotate(0 4.349438876155773 -15.697407859722176)"><path d="M10.015237641425712 -17.005230884491755 C10.145201659082893 -18.82892112656876, 9.539219471828849 -25.306582972334233, 10.612228134573321 -31.77361626749694 M9.119125485883673 -16.674717395275234 C10.312727420857525 -18.88282965750657, 9.379403674983136 -23.24820500367621, 8.996731103783038 -30.84403782228661" stroke="#000000" stroke-width="1" fill="none"></path></g><g transform="translate(464 84.5) rotate(0 4.349438876155773 -15.697407859722176)"><path d="M-0.014548167724955041 -20.493780015464754 C2.908764008291116 -21.38293886986924, 5.081505175293519 -26.89410819753312, 10.612228134573321 -31.77361626749694 M-0.9106603232669932 -20.163266526248233 C2.5579911200604295 -21.53633835958289, 3.9152956975197695 -25.104989867496933, 8.996731103783038 -30.84403782228661" stroke="#000000" stroke-width="1" fill="none"></path></g></g><g><g transform="translate(409 226.5) rotate(0 20.188930520713313 -24.264834646880615)"><path d="M-0.18020123429596424 -0.8937807004898786 C6.657109004383286 -9.091249414409202, 35.324096252645056 -41.749788570528224, 42.11180665306747 -49.78104978017509 M-1.733945611640811 1.2513804864138365 C4.947431213532885 -6.757891554112236, 34.86812791633109 -40.47735078183313, 41.747459682300686 -48.65367566354573" stroke="#000000" stroke-width="1" fill="none"></path></g><g transform="translate(409 226.5) rotate(0 20.188930520713313 -24.264834646880615)"><path d="M29.539093029612623 -18.780871908907105 C34.05360075264389 -32.32062273747861, 39.40717288618892 -43.089159992475786, 41.002000794410705 -48.6996530008316 M31.563337393032334 -20.481205276008954 C34.50610616403485 -29.637681847777294, 38.20601593164227 -38.99292825011362, 42.33441306244582 -47.82706267785281" stroke="#000000" stroke-width="1" fill="none"></path></g><g transform="translate(409 226.5) rotate(0 20.188930520713313 -24.264834646880615)"><path d="M14.036024427447742 -32.22612632458882 C24.540188807208533 -40.49004520376326, 35.95022230443936 -46.006031110175755, 41.002000794410705 -48.6996530008316 M16.060268790867454 -33.92645969169067 C24.13163385260605 -38.768301832621276, 32.969223249523296 -43.66782327527511, 42.33441306244582 -47.82706267785281" stroke="#000000" stroke-width="1" fill="none"></path></g></g><g><g transform="translate(237 201.5) rotate(0 3.8257894600927784 -17.46935645155611)"><path d="M1.0266556721180675 0.09594881124794474 C2.183055800323685 -5.680129242067537, 6.442112674439947 -29.01242544266085, 7.5450677495449785 -35.03466171436012 M0.1065111706405879 -0.8992820081859827 C1.0120000773419937 -6.440933291291198, 5.260602959568303 -27.78787201183538, 6.358182854428888 -33.5154338631779" stroke="#000000" stroke-width="1" fill="none"></path></g><g transform="translate(237 201.5) rotate(0 3.8257894600927784 -17.46935645155611)"><path d="M9.29701121391121 -16.46363422525014 C8.177604687014583 -22.50731968958342, 5.697555790644706 -26.482190731873782, 5.764722248463147 -33.73098770775251 M8.67254734856524 -16.097177490041272 C8.258530176228277 -20.359558283380768, 7.6955366074735725 -26.444288854241936, 7.06755872105967 -33.38173369217386" stroke="#000000" stroke-width="1" fill="none"></path></g><g transform="translate(237 201.5) rotate(0 3.8257894600927784 -17.46935645155611)"><path d="M-2.7550999882012226 -18.815436083769406 C0.3430163719160859 -24.137795682285763, 2.0879023286267087 -27.288229456037154, 5.764722248463147 -33.73098770775251 M-3.3795638535471912 -18.44897934856054 C-0.446047321100725 -22.122120724330415, 2.32946167543571 -27.555388957510292, 7.06755872105967 -33.38173369217386" stroke="#000000" stroke-width="1" fill="none"></path></g></g><g><g transform="translate(248 79.5) rotate(0 2.221073903143406 -18.99574134163558)"><path d="M0.94839922003448 0.17875028438866147 C1.655515875543157 -5.993171656255919, 3.8989745796968536 -31.998063453162708, 4.454977725073695 -38.17023296765983 M-0.012829918786883443 -0.77300976164639 C0.5575016920516888 -6.655822972928485, 3.1323173650850853 -30.418469977850716, 3.745795567110181 -36.72218002445996" stroke="#000000" stroke-width="1" fill="none"></path></g><g transform="translate(248 79.5) rotate(0 2.221073903143406 -18.99574134163558)"><path d="M8.685031916924787 -17.468538506958396 C6.826514562103764 -23.589859622772146, 7.442904071880347 -29.790455006556233, 4.826398612806736 -35.33032234279059 M9.214823921736144 -17.795765700920832 C6.717719585984522 -24.869541514531107, 5.06476248262187 -32.148074188729154, 3.485075178102012 -37.510247766441495" stroke="#000000" stroke-width="1" fill="none"></path></g><g transform="translate(248 79.5) rotate(0 2.221073903143406 -18.99574134163558)"><path d="M-4.31434129640764 -18.811614299176156 C-2.055834851800921 -24.60899220882095, 2.690323142258004 -30.382906091298903, 4.826398612806736 -35.33032234279059 M-3.7845492915962833 -19.138841493138592 C-1.1492593027657763 -25.58825581052141, 2.331524784589142 -32.33637802541421, 3.485075178102012 -37.510247766441495" stroke="#000000" stroke-width="1" fill="none"></path></g></g><g><g transform="translate(411 93.5) rotate(0 -49.718298984319006 -21.280272061079728)"><path d="M-0.3275214929133653 -0.9899844210594893 C-17.251308590049547 -8.416950281585255, -84.36893552330632 -36.586645519857605, -101.13798896260559 -43.66521393470466 M1.7013909939676526 1.1046698125451804 C-14.90540561797718 -6.254585376555722, -82.31624554199477 -35.228557629560434, -99.02347863160074 -42.47702599920333" stroke="#000000" stroke-width="1" fill="none"></path></g><g transform="translate(411 93.5) rotate(0 -49.718298984319006 -21.280272061079728)"><path d="M-70.72478399881186 -42.61946646580009 C-80.19130979436123 -42.959723262510344, -89.84631477799529 -41.96492672237145, -100.77783166497946 -42.85230022341013 M-68.71059157130333 -41.5367982014036 C-79.39838107956962 -41.79294601614201, -90.10126482832497 -41.598644636125535, -98.51792078811675 -42.69436318378896" stroke="#000000" stroke-width="1" fill="none"></path></g><g transform="translate(411 93.5) rotate(0 -49.718298984319006 -21.280272061079728)"><path d="M-78.85902449634465 -23.779239983240565 C-85.75169303731448 -30.384802992280655, -92.6920758213356 -35.677513819400495, -100.77783166497946 -42.85230022341013 M-76.84483206883611 -22.696571718844076 C-84.6951304869929 -29.717363081880976, -92.49493499157988 -36.247066293754685, -98.51792078811675 -42.69436318378896" stroke="#000000" stroke-width="1" fill="none"></path></g></g></svg>