<svg xmlns="http://www.w3.org/2000/svg" width="110" height="120" viewBox="0 0 110 120">
    <rect x="0" y="0" fill="#6F3C97" width="110" height="120"/>
    <g>
        <path fill="#FFFFFF" d="M62.96,29.999V35.6H36.78v15.89h22.96v5.601H36.78v22.89h-6.65v-49.98H62.96z"/>
        <path fill="#FFFFFF" d="M82.42,43.789v5.25h-7.21V71.51c0,0.7,0.058,1.26,0.175,1.68c0.116,0.42,0.338,0.747,0.665,0.98c0.326,0.233,0.781,0.385,1.365,0.454c0.583,0.07,1.341,0.105,2.274,0.105h2.73v5.25h-4.55c-1.54,0-2.859-0.105-3.955-0.315c-1.098-0.21-1.984-0.595-2.66-1.154c-0.677-0.561-1.18-1.354-1.505-2.38c-0.327-1.026-0.49-2.381-0.49-4.061v-23.03H63.1v-5.25h6.16v-10.85h5.95v10.85H82.42z"/>
    </g>
</svg>
