<svg xmlns="http://www.w3.org/2000/svg" xmlns:xlink="http://www.w3.org/1999/xlink" version="1.1" x="0" y="0" width="110" height="128" viewBox="0, 0, 110, 128">
  <path fill="none" d="M17.244,125.913"/>
  <rect x="0" y="0" fill="#6F3C97" width="110" height="128"/>
  <path d="M110,124 L0,124 L0,4 L110,4 L110,124 z M23.243,33.999 L23.243,98.259 L31.794,98.259 L31.794,68.829 L61.314,68.829 L61.314,61.629 L31.794,61.629 L31.794,41.199 L65.454,41.199 L65.454,33.999 L23.243,33.999 z M81.203,51.729 L81.203,37.779 L73.554,37.779 L73.554,51.729 L65.633,51.729 L65.633,58.479 L73.554,58.479 L73.554,88.089 C73.554,90.249 73.763,91.989 74.184,93.309 C74.603,94.629 75.248,95.649 76.119,96.37 C76.988,97.09 78.129,97.585 79.539,97.854 C80.948,98.125 82.644,98.259 84.624,98.259 L90.475,98.259 L90.475,91.509 L86.964,91.509 C85.764,91.509 84.789,91.464 84.039,91.374 C83.288,91.284 82.703,91.09 82.284,90.789 C81.863,90.489 81.578,90.068 81.43,89.528 C81.279,88.989 81.204,88.268 81.204,87.369 L81.204,58.479 L90.475,58.479 L90.475,51.729 L81.203,51.729 z" fill="#FFFFFF"/>
</svg>