<svg version="1.1" xmlns="http://www.w3.org/2000/svg" viewBox="0 0 952.0294036865234 744.4560623601471" width="952.0294036865234" height="744.4560623601471">
  <!-- svg-source:excalidraw -->
  
  <defs>
    <style class="style-fonts">
      @font-face {
        font-family: "Virgil";
        src: url("https://excalidraw.com/Virgil.woff2");
      }
      @font-face {
        font-family: "Cascadia";
        src: url("https://excalidraw.com/Cascadia.woff2");
      }
      @font-face {
        font-family: "Assistant";
        src: url("https://app.excalidraw.com//dist/excalidraw-assets/Assistant-Regular.woff2");
      }
    </style>
    
  </defs>
  <rect x="0" y="0" width="952.0294036865234" height="744.4560623601471" fill="#ffffff"></rect><g transform="translate(598.26953125 10) rotate(0 118.51990509033203 16)"><text x="0" y="0" font-family="Virgil, Segoe UI Emoji" font-size="20px" fill="#000000" text-anchor="start" style="white-space: pre;" direction="ltr" dominant-baseline="text-before-edge">Intl.getCanonicalLocales</text></g><g transform="translate(323.76953125 226) rotate(0 75.64993286132812 16)"><text x="0" y="0" font-family="Virgil, Segoe UI Emoji" font-size="20px" fill="#000000" text-anchor="start" style="white-space: pre;" direction="ltr" dominant-baseline="text-before-edge">Intl.PluralRules</text></g><g transform="translate(10 498.859375) rotate(0 117.48989868164062 16)"><text x="0" y="0" font-family="Virgil, Segoe UI Emoji" font-size="20px" fill="#000000" text-anchor="start" style="white-space: pre;" direction="ltr" dominant-baseline="text-before-edge">Intl.RelativeTimeFormat</text></g><g transform="translate(669.76953125 107) rotate(0 52.4599609375 16)"><text x="0" y="0" font-family="Virgil, Segoe UI Emoji" font-size="20px" fill="#000000" text-anchor="start" style="white-space: pre;" direction="ltr" dominant-baseline="text-before-edge">Intl.Locale</text></g><g transform="translate(538.76953125 229) rotate(0 85.8199234008789 16)"><text x="0" y="0" font-family="Virgil, Segoe UI Emoji" font-size="20px" fill="#000000" text-anchor="start" style="white-space: pre;" direction="ltr" dominant-baseline="text-before-edge">Intl.DisplayNames</text></g><g transform="translate(432.623375868942 369.36746599058654) rotate(0 88.66992187500003 16)"><text x="0" y="0" font-family="Virgil, Segoe UI Emoji" font-size="20px" fill="#000000" text-anchor="start" style="white-space: pre;" direction="ltr" dominant-baseline="text-before-edge">Intl.NumberFormat</text></g><g transform="translate(792.76953125 223) rotate(0 74.62993621826172 16)"><text x="0" y="0" font-family="Virgil, Segoe UI Emoji" font-size="20px" fill="#000000" text-anchor="start" style="white-space: pre;" direction="ltr" dominant-baseline="text-before-edge">Intl.ListFormat</text></g><g stroke-linecap="round"><g transform="translate(421.19126261635085 398.4461237829498) rotate(0 -126.16718738404109 43.318795506267634)"><path d="M0.66 -1.14 C-41.29 13.28, -209.36 72.26, -251.47 86.86 M-0.45 0.87 C-42.51 14.88, -209.94 70.38, -251.97 84.86" stroke="#000000" stroke-width="1" fill="none"></path></g><g transform="translate(421.19126261635085 398.4461237829498) rotate(0 -126.16718738404109 43.318795506267634)"><path d="M-228.53 66.13 C-237.94 73.74, -243.22 78.85, -251.97 84.86 M-228.53 66.13 C-234.52 70.76, -242.63 76.32, -251.97 84.86" stroke="#000000" stroke-width="1" fill="none"></path></g><g transform="translate(421.19126261635085 398.4461237829498) rotate(0 -126.16718738404109 43.318795506267634)"><path d="M-221.98 85.58 C-233.55 86.95, -240.94 85.79, -251.97 84.86 M-221.98 85.58 C-229.92 84.66, -239.92 84.62, -251.97 84.86" stroke="#000000" stroke-width="1" fill="none"></path></g></g><mask></mask><g transform="translate(300.1847387983879 503.1702101086306) rotate(0 102.98991394042969 16)"><text x="0" y="0" font-family="Virgil, Segoe UI Emoji" font-size="20px" fill="#000000" text-anchor="start" style="white-space: pre;" direction="ltr" dominant-baseline="text-before-edge">Intl.DateTimeFormat</text></g><g stroke-linecap="round"><g transform="translate(387.26953125 278) rotate(0 45.60446622355394 40.18373299529327)"><path d="M1.18 1.04 C16.52 14.38, 75.82 66.42, 90.98 79.74 M0.33 0.53 C15.6 14.05, 74.66 67.88, 89.91 80.95" stroke="#000000" stroke-width="1" fill="none"></path></g><g transform="translate(387.26953125 278) rotate(0 45.60446622355394 40.18373299529327)"><path d="M62.01 69.91 C69.55 71.57, 72.62 75.79, 89.91 80.95 M62.01 69.91 C71.64 73.23, 81.79 78.89, 89.91 80.95" stroke="#000000" stroke-width="1" fill="none"></path></g><g transform="translate(387.26953125 278) rotate(0 45.60446622355394 40.18373299529327)"><path d="M75.63 54.56 C80.28 59.56, 80.5 67, 89.91 80.95 M75.63 54.56 C80.55 63.14, 85.92 74.19, 89.91 80.95" stroke="#000000" stroke-width="1" fill="none"></path></g></g><mask></mask><g stroke-linecap="round"><g transform="translate(717.26953125 48) rotate(0 0.5 26)"><path d="M-0.12 0.78 C0.25 9.52, 1.24 43.51, 1.31 52.22 M-1.64 0.14 C-1.32 8.52, -0.21 41.7, 0.53 50.21" stroke="#000000" stroke-width="1" fill="none"></path></g><g transform="translate(717.26953125 48) rotate(0 0.5 26)"><path d="M-9.73 26.31 C-6.21 32.14, -4.87 35.74, 0.53 50.21 M-9.73 26.31 C-4.98 34.8, -1.7 44.06, 0.53 50.21" stroke="#000000" stroke-width="1" fill="none"></path></g><g transform="translate(717.26953125 48) rotate(0 0.5 26)"><path d="M8.03 25.31 C7.61 31.34, 5.01 35.16, 0.53 50.21 M8.03 25.31 C5.99 34.16, 2.46 43.81, 0.53 50.21" stroke="#000000" stroke-width="1" fill="none"></path></g></g><mask></mask><g stroke-linecap="round"><g transform="translate(755.4477982889522 148.5) rotate(0 54.061904640672594 33.25)"><path d="M1.18 -0.31 C19.36 10.82, 91.18 55.22, 108.9 66.36 M0.35 -1.52 C18.44 9.84, 90.69 56.27, 108.36 67.83" stroke="#000000" stroke-width="1" fill="none"></path></g><g transform="translate(755.4477982889522 148.5) rotate(0 54.061904640672594 33.25)"><path d="M79.12 61.12 C87.01 64.06, 95.73 63.66, 108.36 67.83 M79.12 61.12 C87.27 62.43, 97.69 65.71, 108.36 67.83" stroke="#000000" stroke-width="1" fill="none"></path></g><g transform="translate(755.4477982889522 148.5) rotate(0 54.061904640672594 33.25)"><path d="M90.27 43.9 C94.89 51.91, 100.39 56.47, 108.36 67.83 M90.27 43.9 C95.23 50.43, 102.28 58.91, 108.36 67.83" stroke="#000000" stroke-width="1" fill="none"></path></g></g><mask></mask><g stroke-linecap="round"><g transform="translate(713.26953125 149) rotate(0 -26.5 37.5)"><path d="M-0.73 0.79 C-9.37 13.33, -43.29 62.18, -51.99 74.47 M1.09 0.15 C-7.61 12.92, -43.29 63.15, -52.4 75.72" stroke="#000000" stroke-width="1" fill="none"></path></g><g transform="translate(713.26953125 149) rotate(0 -26.5 37.5)"><path d="M-44.33 46.83 C-45.54 56.81, -50.07 63.63, -52.4 75.72 M-44.33 46.83 C-45.61 53.94, -47.88 61.42, -52.4 75.72" stroke="#000000" stroke-width="1" fill="none"></path></g><g transform="translate(713.26953125 149) rotate(0 -26.5 37.5)"><path d="M-27.65 58.78 C-33.59 65.21, -42.94 68.58, -52.4 75.72 M-27.65 58.78 C-33.29 62.83, -39.9 67.2, -52.4 75.72" stroke="#000000" stroke-width="1" fill="none"></path></g></g><mask></mask><g stroke-linecap="round"><g transform="translate(659.26953125 148) rotate(0 -110.5 36.5)"><path d="M-1.01 0.09 C-37.66 12.25, -183.74 60.32, -220.27 72.53 M0.65 -0.91 C-36.05 11.45, -183.96 61.8, -220.84 73.82" stroke="#000000" stroke-width="1" fill="none"></path></g><g transform="translate(659.26953125 148) rotate(0 -110.5 36.5)"><path d="M-197.36 55.16 C-203.52 61.14, -210.71 66.17, -220.84 73.82 M-197.36 55.16 C-205.35 61.96, -212.98 66.67, -220.84 73.82" stroke="#000000" stroke-width="1" fill="none"></path></g><g transform="translate(659.26953125 148) rotate(0 -110.5 36.5)"><path d="M-190.85 74.62 C-198.68 75.37, -207.6 75.21, -220.84 73.82 M-190.85 74.62 C-200.92 74.94, -210.71 73.21, -220.84 73.82" stroke="#000000" stroke-width="1" fill="none"></path></g></g><mask></mask><g stroke-linecap="round"><g transform="translate(471.86020126637527 411.77554704527404) rotate(0 -28.49655791216327 40.53418455902204)"><path d="M0 0 C-16.47 22.48, -35.08 45.81, -56.99 81.07 M0 0 C-15.28 22.16, -31.95 43.64, -56.99 81.07" stroke="#1e1e1e" stroke-width="1" fill="none"></path></g><g transform="translate(471.86020126637527 411.77554704527404) rotate(0 -28.49655791216327 40.53418455902204)"><path d="M-49.5 52.02 C-51.31 59.75, -55.62 68.06, -56.99 81.07 M-49.5 52.02 C-51.18 60.43, -54.37 67.75, -56.99 81.07" stroke="#1e1e1e" stroke-width="1" fill="none"></path></g><g transform="translate(471.86020126637527 411.77554704527404) rotate(0 -28.49655791216327 40.53418455902204)"><path d="M-32.58 63.63 C-39.2 67.91, -48.39 72.86, -56.99 81.07 M-32.58 63.63 C-38.84 68.74, -46.64 72.89, -56.99 81.07" stroke="#1e1e1e" stroke-width="1" fill="none"></path></g></g><mask></mask><g transform="translate(688.531718032912 698.6763897245937) rotate(0 97.86991882324219 12.5)"><text x="0" y="0" font-family="Virgil, Segoe UI Emoji" font-size="20px" fill="#1e1e1e" text-anchor="start" style="white-space: pre;" direction="ltr" dominant-baseline="text-before-edge">Intl.DurationFormat</text></g><g stroke-linecap="round"><g transform="translate(565.3468065058979 411.11539079527404) rotate(0 100.64924897422424 137.58909321465984)"><path d="M0 0 C44.75 62.48, 90.79 124.54, 201.3 275.18 M0 0 C50.36 67.8, 99.25 135.72, 201.3 275.18" stroke="#1e1e1e" stroke-width="1" fill="none"></path></g><g transform="translate(565.3468065058979 411.11539079527404) rotate(0 100.64924897422424 137.58909321465984)"><path d="M176.39 258.46 C182.73 261.52, 189.07 264.96, 201.3 275.18 M176.39 258.46 C183.17 262.95, 187.93 266.81, 201.3 275.18" stroke="#1e1e1e" stroke-width="1" fill="none"></path></g><g transform="translate(565.3468065058979 411.11539079527404) rotate(0 100.64924897422424 137.58909321465984)"><path d="M192.96 246.36 C195.46 252.07, 198.05 258.24, 201.3 275.18 M192.96 246.36 C195.65 253.92, 196.31 260.77, 201.3 275.18" stroke="#1e1e1e" stroke-width="1" fill="none"></path></g></g><mask></mask><g stroke-linecap="round"><g transform="translate(836.6265138600612 263.7322998046875) rotate(0 -7.489567130793262 212.04626370995317)"><path d="M0 0 C-4.43 143.25, -9.88 285.82, -14.98 424.09 M0 0 C-2.2 115.05, -5.93 230.64, -14.98 424.09" stroke="#1e1e1e" stroke-width="1" fill="none"></path></g><g transform="translate(836.6265138600612 263.7322998046875) rotate(0 -7.489567130793262 212.04626370995317)"><path d="M-23.99 395.48 C-19.66 406.37, -17.43 416.02, -14.98 424.09 M-23.99 395.48 C-21.74 403.23, -18.65 411.94, -14.98 424.09" stroke="#1e1e1e" stroke-width="1" fill="none"></path></g><g transform="translate(836.6265138600612 263.7322998046875) rotate(0 -7.489567130793262 212.04626370995317)"><path d="M-3.49 396.38 C-6.05 407, -10.71 416.35, -14.98 424.09 M-3.49 396.38 C-6.81 403.83, -9.28 412.3, -14.98 424.09" stroke="#1e1e1e" stroke-width="1" fill="none"></path></g></g><mask></mask><g transform="translate(399.6782369556001 709.4560623601471) rotate(0 111.92988586425784 12.5)"><text x="0" y="0" font-family="Virgil, Segoe UI Emoji" font-size="20px" fill="#1e1e1e" text-anchor="start" style="white-space: pre;" direction="ltr" dominant-baseline="text-before-edge">Intl.supportedValuesOf</text></g><g stroke-linecap="round"><g transform="translate(537.5497582532984 410.1779187635417) rotate(0 13.140368792328331 145.8567789945655)"><path d="M0 0 C7.22 61.82, 12.79 122.17, 26.28 291.71 M0 0 C8.53 68.54, 14.5 137.79, 26.28 291.71" stroke="#1e1e1e" stroke-width="1" fill="none"></path></g><g transform="translate(537.5497582532984 410.1779187635417) rotate(0 13.140368792328331 145.8567789945655)"><path d="M13.84 264.41 C17.21 271.05, 19.91 275.72, 26.28 291.71 M13.84 264.41 C17.85 270.46, 20.47 277.42, 26.28 291.71" stroke="#1e1e1e" stroke-width="1" fill="none"></path></g><g transform="translate(537.5497582532984 410.1779187635417) rotate(0 13.140368792328331 145.8567789945655)"><path d="M34.3 262.81 C33.39 269.76, 31.8 274.77, 26.28 291.71 M34.3 262.81 C33.49 269.29, 31.28 276.63, 26.28 291.71" stroke="#1e1e1e" stroke-width="1" fill="none"></path></g></g><mask></mask><g stroke-linecap="round"><g transform="translate(411.0927233811784 544.124419227173) rotate(0 18.505815932485888 76.80833832177188)"><path d="M0 0 C7.24 36.41, 15.01 75.65, 37.01 153.62 M0 0 C10.37 49.06, 22.33 97.31, 37.01 153.62" stroke="#1e1e1e" stroke-width="1" fill="none"></path></g><g transform="translate(411.0927233811784 544.124419227173) rotate(0 18.505815932485888 76.80833832177188)"><path d="M20.07 128.86 C23.39 134.12, 26.29 142.08, 37.01 153.62 M20.07 128.86 C24.82 136.8, 30.37 143.83, 37.01 153.62" stroke="#1e1e1e" stroke-width="1" fill="none"></path></g><g transform="translate(411.0927233811784 544.124419227173) rotate(0 18.505815932485888 76.80833832177188)"><path d="M39.94 123.76 C38.4 130.38, 36.48 139.58, 37.01 153.62 M39.94 123.76 C38.31 133.45, 37.49 142.11, 37.01 153.62" stroke="#1e1e1e" stroke-width="1" fill="none"></path></g></g><mask></mask></svg>