<svg version="1.1" xmlns="http://www.w3.org/2000/svg" viewBox="0 0 579.9999999999999 222.3571428571429" width="1159.9999999999998" height="444.7142857142858">
  <!-- svg-source:excalidraw -->
  
  <defs>
    <style>
      @font-face {
        font-family: "Virgil";
        src: url("https://excalidraw.com/Virgil.woff2");
      }
      @font-face {
        font-family: "Cascadia";
        src: url("https://excalidraw.com/Cascadia.woff2");
      }
    </style>
  </defs>
  <rect x="0" y="0" width="579.9999999999999" height="222.3571428571429" fill="#ffffff"></rect><g stroke-linecap="round" transform="translate(407.7142857142857 18.21428571428578) rotate(0 81.14285714285708 39.928571428571445)"><path d="M-1.8 -1.7 C34.11 -2.02, 69.67 -0.12, 163.83 0.74 M-0.91 0.38 C32.95 0.06, 67.03 1.14, 162.87 0.64 M162.84 1.07 C161.51 28.86, 163.37 58.75, 161.63 80.68 M161.41 -0.45 C162.41 28.67, 161.35 56.23, 161.47 80.31 M162.3 80.08 C116.8 79.93, 67.9 81.65, 0.15 78.3 M161.71 78.9 C119.36 79.73, 78.61 78.22, -0.65 79.51 M0.74 80.32 C-1.26 52.9, -1 25.37, 0.84 -1.16 M0.73 80.12 C-0.99 62.64, -0.74 44.47, -0.11 0.17" stroke="#000000" stroke-width="1" fill="none"></path></g><g transform="translate(260.14285714285734 10) rotate(0 51.000000000000014 16)"><text x="0" y="23" font-family="Virgil, Segoe UI Emoji" font-size="20px" fill="#000000" text-anchor="start" style="white-space: pre;" direction="ltr">Extraction</text></g><g stroke-linecap="round"><g transform="translate(236.4636184378658 46.92857142857156) rotate(0 78.4572785196749 -0.23176171327793327)"><path d="M0.86 1.04 C26.93 1.07, 130.83 0.45, 157.06 0.41 M-0.14 0.54 C25.69 0.18, 129.59 -1.22, 155.93 -1.5" stroke="#000000" stroke-width="1" fill="none"></path></g><g transform="translate(236.4636184378658 46.92857142857156) rotate(0 78.4572785196749 -0.23176171327793327)"><path d="M129.6 8.54 C138.42 6.57, 148.9 -0.54, 156.68 0.25 M127.75 9.97 C135.52 7.5, 141.85 4.73, 155.69 -1.15" stroke="#000000" stroke-width="1" fill="none"></path></g><g transform="translate(236.4636184378658 46.92857142857156) rotate(0 78.4572785196749 -0.23176171327793327)"><path d="M129.35 -11.98 C138.29 -6.71, 148.87 -6.6, 156.68 0.25 M127.5 -10.55 C135.15 -7.77, 141.55 -5.28, 155.69 -1.15" stroke="#000000" stroke-width="1" fill="none"></path></g></g><g stroke-linecap="round"><g transform="translate(385.857142857143 70.78571428571308) rotate(0 -74.03365298834231 -0.49379486859777444)"><path d="M1.14 0.46 C-23.87 0.4, -124.06 0.37, -149.21 0.44 M0.28 -0.35 C-24.41 -0.84, -122.2 -1.34, -146.83 -1.45" stroke="#000000" stroke-width="1" fill="none"></path></g><g transform="translate(385.857142857143 70.78571428571308) rotate(0 -74.03365298834231 -0.49379486859777444)"><path d="M-117.82 -12.62 C-128.26 -9.51, -137.98 -3.95, -147.75 0.35 M-119.01 -11.85 C-128.27 -9.46, -138.21 -4.95, -147.49 -1.93" stroke="#000000" stroke-width="1" fill="none"></path></g><g transform="translate(385.857142857143 70.78571428571308) rotate(0 -74.03365298834231 -0.49379486859777444)"><path d="M-117.93 7.9 C-128.46 3.39, -138.14 1.34, -147.75 0.35 M-119.12 8.67 C-128.51 4.23, -138.42 1.89, -147.49 -1.93" stroke="#000000" stroke-width="1" fill="none"></path></g></g><g transform="translate(293.28571428571365 73.14285714285711) rotate(0 24.5 12.5)"><text x="0" y="18" font-family="Virgil, Segoe UI Emoji" font-size="20px" fill="#000000" text-anchor="start" style="white-space: pre;" direction="ltr">Save</text></g><g stroke-linecap="round" transform="translate(102.85714285714278 28.07142857142844) rotate(0 62.14285714285717 30)"><path d="M37.68 2.38 C46.29 0.09, 58.34 -0.97, 68.44 -0.24 C78.54 0.49, 89.95 3.61, 98.29 6.76 C106.62 9.92, 114.32 14.08, 118.43 18.68 C122.54 23.27, 124.19 29.33, 122.96 34.33 C121.73 39.33, 117.03 44.96, 111.07 48.68 C105.11 52.39, 96.55 54.76, 87.18 56.6 C77.81 58.44, 65.26 60.19, 54.86 59.71 C44.46 59.22, 33.05 56.6, 24.78 53.69 C16.51 50.79, 9.41 46.64, 5.25 42.26 C1.09 37.88, -1.4 32.41, -0.17 27.41 C1.07 22.41, 5.62 16.51, 12.66 12.28 C19.71 8.04, 36.46 3.76, 42.09 1.99 C47.72 0.21, 46.28 1.3, 46.45 1.65 M43.96 2.48 C53.04 0.73, 66.34 -0.93, 76.7 -0.06 C87.06 0.8, 98.82 3.89, 106.12 7.66 C113.42 11.43, 117.96 17.8, 120.51 22.58 C123.05 27.36, 123.76 31.62, 121.39 36.35 C119.01 41.08, 113.37 47.01, 106.28 50.95 C99.2 54.89, 88.68 58.76, 78.86 59.99 C69.04 61.23, 57.55 59.54, 47.35 58.36 C37.15 57.19, 25.12 56.28, 17.68 52.95 C10.24 49.62, 5.1 43.6, 2.71 38.38 C0.32 33.15, 0.65 26.55, 3.33 21.58 C6.02 16.61, 11.89 11.93, 18.82 8.58 C25.75 5.23, 40.43 2.73, 44.89 1.49 C49.35 0.24, 45.09 0.55, 45.56 1.11" stroke="#000000" stroke-width="1" fill="none"></path></g><g transform="translate(126.49999999999994 42.07142857142844) rotate(0 38.5 16)"><text x="38.5" y="23" font-family="Virgil, Segoe UI Emoji" font-size="20px" fill="#000000" text-anchor="middle" style="white-space: pre;" direction="ltr">Develop</text></g><g stroke-linecap="round" transform="translate(184.28571428571422 152.3571428571429) rotate(0 59.285714285714306 30)"><path d="M66.32 0.7 C76.36 0.91, 87.73 3.39, 95.79 6.67 C103.85 9.96, 111.11 15.2, 114.68 20.43 C118.24 25.66, 119.79 32.78, 117.17 38.06 C114.56 43.35, 106.99 48.61, 98.98 52.14 C90.97 55.66, 79.46 58.22, 69.12 59.2 C58.78 60.18, 46.65 60.2, 36.94 58.02 C27.23 55.84, 17.06 50.73, 10.85 46.13 C4.63 41.53, 0.17 35.8, -0.37 30.42 C-0.91 25.04, 2.17 18.49, 7.6 13.86 C13.04 9.24, 21.81 4.84, 32.23 2.67 C42.65 0.5, 62.73 1.14, 70.14 0.84 C77.54 0.54, 76.73 0.27, 76.66 0.88 M77.34 0.82 C87.38 1.85, 98.68 6.4, 105.26 10.79 C111.85 15.18, 115.84 21.55, 116.84 27.15 C117.85 32.76, 115.86 39.65, 111.31 44.41 C106.76 49.17, 98.48 53.09, 89.56 55.71 C80.64 58.34, 68.57 60.1, 57.77 60.15 C46.97 60.2, 33.4 59.24, 24.75 56.03 C16.09 52.82, 9.73 46.22, 5.85 40.89 C1.96 35.57, -0.41 29.24, 1.45 24.08 C3.31 18.92, 9.86 13.92, 17.02 9.95 C24.18 5.98, 34.49 1.71, 44.42 0.27 C54.34 -1.17, 71.27 0.86, 76.57 1.29 C81.87 1.72, 76.08 2.4, 76.24 2.86" stroke="#000000" stroke-width="1" fill="none"></path></g><g transform="translate(220.57142857142853 166.3571428571429) rotate(0 23 16)"><text x="23" y="23" font-family="Virgil, Segoe UI Emoji" font-size="20px" fill="#000000" text-anchor="middle" style="white-space: pre;" direction="ltr">Build</text></g><g stroke-linecap="round" transform="translate(10 156.64285714285666) rotate(0 55 26.428571428571445)"><path d="M32.45 3.01 C40.67 0.92, 53.8 0.44, 63.51 0.99 C73.23 1.54, 83.41 3.25, 90.75 6.3 C98.09 9.34, 104.79 14.52, 107.54 19.25 C110.28 23.99, 109.89 30.24, 107.21 34.68 C104.53 39.12, 98.99 43.01, 91.45 45.91 C83.91 48.82, 71.95 51.38, 61.96 52.1 C51.97 52.82, 40.37 52.33, 31.5 50.24 C22.62 48.15, 14 43.59, 8.72 39.57 C3.45 35.54, -0.37 30.79, -0.16 26.11 C0.05 21.43, 2.92 15.72, 9.97 11.49 C17.01 7.26, 35.07 2.57, 42.12 0.73 C49.16 -1.1, 52.08 0.11, 52.24 0.48 M51.81 -1.33 C61.2 -1.79, 74.07 1.17, 82.52 3.83 C90.98 6.5, 98.2 10.37, 102.56 14.66 C106.93 18.95, 109.4 24.95, 108.71 29.59 C108.01 34.22, 104.34 38.88, 98.4 42.46 C92.46 46.05, 82.1 49.47, 73.07 51.09 C64.04 52.72, 53.8 52.98, 44.23 52.21 C34.66 51.44, 22.62 49.81, 15.65 46.46 C8.67 43.11, 4.37 36.95, 2.38 32.09 C0.39 27.24, 0.64 21.57, 3.73 17.32 C6.82 13.07, 13.05 9.45, 20.91 6.59 C28.78 3.72, 46.01 0.93, 50.92 0.12 C55.84 -0.69, 50.15 1.18, 50.4 1.72" stroke="#000000" stroke-width="1" fill="none"></path></g><g transform="translate(42.5 167.0714285714282) rotate(0 22.5 16)"><text x="22.5" y="23" font-family="Virgil, Segoe UI Emoji" font-size="20px" fill="#000000" text-anchor="middle" style="white-space: pre;" direction="ltr">Test</text></g><g stroke-linecap="round"><g transform="translate(192.85714285714283 89.5) rotate(0 11.392966846216993 26.978855679261414)"><path d="M-0.57 0.47 C3.45 9.5, 19.33 44.13, 23.35 53.28 M1.34 -0.33 C5.3 8.9, 19.02 45.31, 22.67 54.28" stroke="#000000" stroke-width="1" fill="none"></path></g><g transform="translate(192.85714285714283 89.5) rotate(0 11.392966846216993 26.978855679261414)"><path d="M4.01 32.99 C6.03 38.74, 14.12 43.72, 22.73 54.08 M2.45 32.89 C6.04 36.76, 11.89 40.17, 23.35 53.42" stroke="#000000" stroke-width="1" fill="none"></path></g><g transform="translate(192.85714285714283 89.5) rotate(0 11.392966846216993 26.978855679261414)"><path d="M22.78 25.67 C20.25 33.09, 23.84 39.82, 22.73 54.08 M21.22 25.57 C20.98 30.89, 23.04 35.77, 23.35 53.42" stroke="#000000" stroke-width="1" fill="none"></path></g></g><g stroke-linecap="round"><g transform="translate(174.28571428571422 186.6428571428571) rotate(0 -22.8572106351171 0.5753227980690099)"><path d="M0.17 -0.54 C-7.19 -0.81, -37.13 -0.78, -44.72 -0.52 M-1.19 1.79 C-8.71 2.19, -38.92 1.18, -45.89 0.75" stroke="#000000" stroke-width="1" fill="none"></path></g><g transform="translate(174.28571428571422 186.6428571428571) rotate(0 -22.8572106351171 0.5753227980690099)"><path d="M-25.68 -6.63 C-30.99 -5.97, -33.85 -2.85, -44.32 0.72 M-25.11 -6.86 C-28.35 -3.84, -34.44 -3.65, -46.42 0.21" stroke="#000000" stroke-width="1" fill="none"></path></g><g transform="translate(174.28571428571422 186.6428571428571) rotate(0 -22.8572106351171 0.5753227980690099)"><path d="M-26.33 8.5 C-31.62 5.28, -34.31 4.52, -44.32 0.72 M-25.76 8.27 C-28.95 8.12, -34.89 5.12, -46.42 0.21" stroke="#000000" stroke-width="1" fill="none"></path></g></g><g stroke-linecap="round"><g transform="translate(77.14285714285711 143.78571428571422) rotate(0 18.669421268297082 -23.151706715832916)"><path d="M-0.24 0.73 C6.15 -7.21, 32.53 -39, 39.16 -47.04 M-1.82 0.07 C4.39 -7.71, 31.66 -37.71, 38.52 -45.45" stroke="#000000" stroke-width="1" fill="none"></path></g><g transform="translate(77.14285714285711 143.78571428571422) rotate(0 18.669421268297082 -23.151706715832916)"><path d="M28.55 -16.63 C31.48 -26.18, 34.85 -38.01, 37.27 -45.05 M26.51 -16.83 C30.17 -26.16, 33.2 -33.74, 38.3 -46.42" stroke="#000000" stroke-width="1" fill="none"></path></g><g transform="translate(77.14285714285711 143.78571428571422) rotate(0 18.669421268297082 -23.151706715832916)"><path d="M13.28 -30.34 C21.9 -34.8, 30.9 -41.58, 37.27 -45.05 M11.24 -30.54 C19.4 -35.88, 26.81 -39.54, 38.3 -46.42" stroke="#000000" stroke-width="1" fill="none"></path></g></g><g transform="translate(431.8571428571428 33.14285714285711) rotate(0 57 25)"><text x="57" y="18" font-family="Virgil, Segoe UI Emoji" font-size="20px" fill="#000000" text-anchor="middle" style="white-space: pre;" direction="ltr">Translation</text><text x="57" y="43" font-family="Virgil, Segoe UI Emoji" font-size="20px" fill="#000000" text-anchor="middle" style="white-space: pre;" direction="ltr">Editor</text></g></svg>