<svg version="1.1" xmlns="http://www.w3.org/2000/svg" viewBox="0 0 1114.7142857142862 351">
  <!-- svg-source:excalidraw -->
  <defs>
    <style>
      @font-face {
        font-family: "Virgil";
        src: url("https://excalidraw.com/FG_Virgil.woff2");
      }
      @font-face {
        font-family: "Cascadia";
        src: url("https://excalidraw.com/Cascadia.woff2");
      }
    </style>
  </defs>
  <rect x="0" y="0" width="1114.7142857142862" height="351" fill="#ffffff"></rect><g transform="translate(964.4285714285721 61.85714285714289) rotate(0 70.14285714285711 97.99999999999989)"><path d="M0.5524723697453737 0.3937599789351225 C47.9684208930337 0.09074573931683383, 97.49034361370973 -1.617420800352203, 141.3080661038735 1.944614363834262 M0.6948686009272933 0.002235361374914646 C45.35539624329124 0.27291065772463163, 90.07540932114102 -0.37136050740789095, 139.843176865285 0.2761784577742219 M139.59755918782736 -1.9347300995141268 C141.50018309608635 47.179824266582685, 140.04296438947853 93.01820790208868, 141.97730687659765 194.86595453135652 M140.3428585764819 0.4120596433058381 C140.71908182438995 43.9427542744204, 140.65636513170386 88.55887618977569, 139.35176050037677 195.11682797316445 M140.3959961275437 195.41478694789095 C91.72594790993523 193.45349630113407, 44.62439830377697 193.58088960643573, 1.2219802904874086 194.2106021177022 M139.49888026089008 196.73478771094216 C99.31418928381586 197.69239790452627, 56.16768247269626 197.78876356495527, -0.63299744669348 196.58025065902604 M-1.035310072824359 196.54747469536943 C-0.32027543988078877 150.2159871265291, 0.3562453249469395 105.87041378803542, -1.4301252197474241 -1.5744824279099703 M-0.9475704962387681 195.82457605842484 C0.41772038072347617 155.2820340385659, 1.1038382980227468 114.12454088497897, -0.8230241173878312 -0.19717042800039053" stroke="#000000" stroke-width="1" fill="none"></path></g><g transform="translate(10 10) rotate(0 193.3571428571429 165.5)"><path d="M0.2685047736186993 -1.1160392803328183 C82.7447754828387 -0.26703690244015055, 166.2173534775511 -0.2533796116958732, 387.80336693791264 -0.3957167078349193 M-0.12337943372262945 0.23364140352261462 C117.29472162936378 -0.9998275911494722, 234.3909929877376 -1.4347599798207136, 386.71499780263866 0.22521642409510667 M386.33739613650175 1.049645188232009 C386.3903716097679 130.7644985136121, 385.90173516079915 265.46897256493673, 387.8052872315389 329.7993145253672 M386.3211885800962 -0.16512286606175527 C387.603864220405 69.08066466927288, 387.0951337562667 139.081718526999, 386.1148308796002 330.9837612946846 M387.61721215229085 331.5383330581995 C270.66264702170577 330.3792464753916, 153.6358986332816 329.1606148694553, -0.640818571345178 331.4250877397629 M386.3353188769477 330.62238456797286 C270.97117628851726 330.9471833787129, 155.55669273065595 331.5959633641423, 0.5235739390329863 331.3847210041507 M-0.564361943394415 331.8006880081896 C1.051743168829447 219.10362131080794, 1.4642766380461274 105.24584061349188, 0.6755266280739859 -0.5080242406278446 M-0.30250782668117654 330.3768886729256 C-1.4215281000604607 250.5861212109584, -1.9280159036381461 169.57285607572845, 0.47370191856721267 0.3334439579228438" stroke="#000000" stroke-width="1" fill="none"></path></g><g transform="translate(33.28571428571411 27.214285714286007) rotate(0 48.5 16)"><text x="0" y="23" font-family="Virgil, Segoe UI Emoji" font-size="20px" fill="#000000" text-anchor="start" style="white-space: pre;" direction="ltr">Codebase</text></g><g><g transform="translate(693.428571428572 105.85714285714289) rotate(0 129.1393253631145 -0.7795885906934927)"><path d="M0.07745312266051774 -0.4603160541504622 C43.08779218010604 -0.5836741011589766, 214.10003725104036 0.29814496822655195, 257.28375010304154 0.3012239176779985 M-1.341022717282176 -1.7475859279185535 C42.126723056510095 -1.7313392014056446, 216.22393793888392 -2.061752135232091, 259.61967344351115 -1.663208274319768" stroke="#000000" stroke-width="1" fill="none"></path></g><g transform="translate(693.428571428572 105.85714285714289) rotate(0 129.1393253631145 -0.7795885906934927)"><path d="M230.63270379301795 7.32362290751459 C238.4492712354819 8.071483389850123, 243.84650971670712 4.757314056100893, 260.1835963982344 -0.5382608288526536 M231.11830855139235 7.950914397838432 C237.9920637549186 6.4530609303624065, 243.13087952333697 3.985777670213576, 258.8187901885435 -1.0988088167831302" stroke="#000000" stroke-width="1" fill="none"></path></g><g transform="translate(693.428571428572 105.85714285714289) rotate(0 129.1393253631145 -0.7795885906934927)"><path d="M230.69092592254094 -13.197503098859269 C238.67188725772627 -7.624206318171893, 244.05543521392144 -6.11297693261711, 260.1835963982344 -0.5382608288526536 M231.17653068091533 -12.570211608535427 C238.0748872097371 -9.617188155333576, 243.2010741902905 -7.63329539000815, 258.8187901885435 -1.0988088167831302" stroke="#000000" stroke-width="1" fill="none"></path></g></g><g transform="translate(738.7142857142867 59.50000000000023) rotate(0 81.5 16)"><text x="0" y="23" font-family="Virgil, Segoe UI Emoji" font-size="20px" fill="#000000" text-anchor="start" style="white-space: pre;" direction="ltr">Upload Messages</text></g><g><g transform="translate(937.4285714285722 233.85714285714153) rotate(0 -120.25318881914018 0.4561016695200806)"><path d="M0.07298531346023074 -0.12593396119773392 C-40.07299238629639 0.3511877535531917, -199.73386705107987 2.136910656963785, -239.75824097581207 2.1498565752059218 M-1.3478361263126135 -1.237653236165643 C-41.728473407253624 -1.0031748729695877, -200.65776612184942 0.30486554009219013, -240.57936295174062 0.6309565284103156" stroke="#000000" stroke-width="1" fill="none"></path></g><g transform="translate(937.4285714285722 233.85714285714153) rotate(0 -120.25318881914018 0.4561016695200806)"><path d="M-212.68314771958995 -9.456433604979738 C-221.66865500217938 -5.840250686994685, -236.38168593465917 0.2664233157047722, -242.3290833929181 -0.1244595500826835 M-213.31383123574216 -9.18044178797476 C-219.62172085741955 -6.5412716887646365, -227.1624214440529 -4.235055984417943, -240.47508628625422 0.16987622220069176" stroke="#000000" stroke-width="1" fill="none"></path></g><g transform="translate(937.4285714285722 233.85714285714153) rotate(0 -120.25318881914018 0.4561016695200806)"><path d="M-212.51567830519048 11.064091641248256 C-221.44511922363762 6.613030792195445, -236.2239883172346 4.652359171126166, -242.3290833929181 -0.1244595500826835 M-213.14636182134268 11.340083458253234 C-219.4927507363032 8.530858974999079, -227.07791843039783 5.388387797878908, -240.47508628625422 0.16987622220069176" stroke="#000000" stroke-width="1" fill="none"></path></g></g><g transform="translate(711.4285714285725 191.35714285714243) rotate(0 112.5 16)"><text x="0" y="23" font-family="Virgil, Segoe UI Emoji" font-size="20px" fill="#000000" text-anchor="start" style="white-space: pre;" direction="ltr">Download Translations</text></g><g transform="translate(581.1428571428573 53.21428571428578) rotate(0 52.14285714285711 101.42857142857144)"><path d="M-1.8044313061982393 -1.7035814952105284 C21.355320524291255 -1.9698980515157538, 44.15705347965868 -0.06848180939310367, 105.83083960440536 0.7442585397511721 M-0.9091508304700255 0.3802623813971877 C21.044696709673307 -0.06510841235784559, 43.23085263757299 1.015916502622089, 104.87166934766401 0.6367953782901168 M104.78045500302242 0.9614748986823562 C102.52545787156045 75.0983007473608, 104.18928829719322 151.1080708660942, 103.70265782709218 203.5951258555605 M103.49963464269337 -0.40672654562419247 C103.51910804315673 71.77126921237146, 102.56437501417865 142.55134955347492, 103.55599274241334 203.25905989446457 M104.2976514401712 203.07552564969026 C75.61543765890275 202.5476469294967, 43.52088371344972 204.2678612368049, 0.15210886113345623 201.3039786302086 M103.71077367224325 201.89878999987357 C76.47058955686428 202.96204846853928, 50.82678853627291 201.45328494662957, -0.6541888928040862 202.50509831109756 M0.6599329787417729 203.2683185584105 C-1.67633336277325 133.29792707456969, -1.4479991535656982 63.22963717680641, 0.7483281412590991 -1.0353881391642257 M0.6547736344613945 203.0904673716952 C-1.0943044193122804 157.874030902861, -0.8738757129938424 112.0414047249157, -0.09431941986209977 0.1540626937238869" stroke="#000000" stroke-width="1" fill="none"></path></g><g transform="translate(432.57142857142884 66) rotate(0 51 16)"><text x="0" y="23" font-family="Virgil, Segoe UI Emoji" font-size="20px" fill="#000000" text-anchor="start" style="white-space: pre;" direction="ltr">Extraction</text></g><g><g transform="translate(411.14285714285757 108.92857142857156) rotate(0 78.33194488146478 -0.23219893723728546)"><path d="M0.8627009969204662 1.0398223478347062 C26.892360696746483 1.067002173140645, 130.6195859385211 0.45188597030937677, 156.8074094719653 0.4054783780127764 M-0.14351970903575428 0.5401251351088288 C25.64369004438676 0.17594211690127864, 129.38124968729204 -1.2172971070557832, 155.68325398111983 -1.5042202223092318" stroke="#000000" stroke-width="1" fill="none"></path></g><g transform="translate(411.14285714285757 108.92857142857156) rotate(0 78.33194488146478 -0.23219893723728546)"><path d="M129.35451255851018 8.545026204117862 C138.1663376341367 6.5747232608059285, 148.64999545374954 -0.5434918895819907, 156.4336373116289 0.2495267808437347 M127.5041971618362 9.970513354555992 C135.26732771703362 7.496864379939118, 141.60130748621972 4.733558815497499, 155.43528635887697 -1.1493135077878833" stroke="#000000" stroke-width="1" fill="none"></path></g><g transform="translate(411.14285714285757 108.92857142857156) rotate(0 78.33194488146478 -0.23219893723728546)"><path d="M129.10082118024835 -11.974614218424515 C138.04351044163482 -6.714506051209879, 148.61658287147608 -6.6004862593634215, 156.4336373116289 0.2495267808437347 M127.25050578357437 -10.549127067986385 C134.8972202775868 -7.766481648602719, 141.29616519788485 -5.275128777481575, 155.43528635887697 -1.1493135077878833" stroke="#000000" stroke-width="1" fill="none"></path></g></g><g><g transform="translate(558.2857142857146 231.78571428571308) rotate(0 -74.03365298834231 -0.49379486859777444)"><path d="M1.1389293272048235 0.4575535040348768 C-23.871100785175255 0.3987607102841139, -124.05738339890684 0.3697608929127455, -149.20623530388946 0.4442173819988966 M0.2777284946478904 -0.34783485168591133 C-24.410588715543888 -0.8431261139549313, -122.20112855228554 -1.342537850085646, -146.82755430205862 -1.4451432412303984" stroke="#000000" stroke-width="1" fill="none"></path></g><g transform="translate(558.2857142857146 231.78571428571308) rotate(0 -74.03365298834231 -0.49379486859777444)"><path d="M-117.8235528626976 -12.62356123364285 C-128.260707829627 -9.512452885463661, -137.97605835331544 -3.9510498708660835, -147.75146728730897 0.351145738940686 M-119.01476969938105 -11.851484780560586 C-128.27019726986575 -9.455527456026822, -138.21061002339064 -4.949362975639485, -147.4940928618903 -1.9279648762010038" stroke="#000000" stroke-width="1" fill="none"></path></g><g transform="translate(558.2857142857146 231.78571428571308) rotate(0 -74.03365298834231 -0.49379486859777444)"><path d="M-117.9255161186883 7.897394053094352 C-128.4611151111539 3.3909335104719895, -138.1386207371782 1.3357353754558918, -147.75146728730897 0.351145738940686 M-119.11673295537175 8.669470506176616 C-128.51068905661316 4.2273986391640666, -138.417120710368 1.8945835067491972, -147.4940928618903 -1.9279648762010038" stroke="#000000" stroke-width="1" fill="none"></path></g></g><g transform="translate(459.7142857142852 193.1428571428571) rotate(0 34 16)"><text x="0" y="23" font-family="Virgil, Segoe UI Emoji" font-size="20px" fill="#000000" text-anchor="start" style="white-space: pre;" direction="ltr">Commit</text></g><g transform="translate(148.28571428571433 90.07142857142844) rotate(0 62.14285714285717 30)"><path d="M37.676239890272015 2.3755903741141253 C46.92262355542459 -0.034963071244845434, 60.16597066151416 -1.059900000430856, 70.91629943250196 -0.07563711617114421 C81.66662820348975 0.9086257680885677, 93.8335770993536 4.5878992005681685, 102.17821251619881 8.281167679672397 C110.52284793304402 11.974436158776625, 117.84561288534422 16.952955159761636, 120.98411193357323 22.08397375845422 C124.12261098180224 27.214992357146805, 124.06508168641405 33.89311703407031, 121.00920680557283 39.0672792718279 C117.95333192473161 44.24144150958549, 110.68093690456043 49.86530704101678, 102.6488626485259 53.12894718499979 C94.61678839249139 56.3925873289828, 83.59675421737533 57.909647646008096, 72.8167612693657 58.64912013572598 C62.03676832135606 59.38859262544386, 48.28877655216411 59.54282213883098, 37.96890496046807 57.56578212330711 C27.64903336877204 55.58874210778324, 17.189039185794623 51.09378906422264, 10.897531719189509 46.78688004258277 C4.606024252584393 42.479971020942905, 0.772604182604006 36.854292318160134, 0.2198601608373778 31.72432799346791 C-0.3328838609292504 26.59436366877568, 2.056082852416808 20.68035933871036, 7.58106758858974 16.007094094429412 C13.106052324762672 11.333828850148464, 27.564148231960377 6.0307288466798745, 33.369768577874964 3.6847365277822135 C39.175388923789555 1.3387442088845525, 40.12711870915626 2.2849020572417555, 42.41478966407726 1.931140181043446 C44.702460618998266 1.5773783048451364, 46.93473758920705 1.2179281375294966, 47.09579430740098 1.5621652705923559 M43.959470617745176 2.475192401734695 C53.69923685495808 0.6483741704647059, 68.18200862287436 -0.9024406878732141, 79.11896402455011 0.25266458364616184 C90.05591942622586 1.4077698551655378, 102.41089041877687 5.095159811254772, 109.58120302779966 9.405824030850951 C116.75151563682245 13.716488250447131, 120.70467431211243 20.863446740691995, 122.14083967868683 26.11664990122324 C123.57700504526123 31.369853061754487, 122.42969264346074 36.13650547514721, 118.19819522724609 40.925042994038435 C113.96669781103144 45.71358051292966, 105.77319897146619 51.478888709785004, 96.75185518139891 54.847875014570604 C87.73051139133163 58.216861319356205, 75.00089055907131 61.080563727076424, 64.0701324868424 61.13896082275204 C53.13937441461349 61.197357918427656, 40.889760271631914 57.84688459196335, 31.167306748025485 55.19825758862431 C21.444853224419056 52.549630585285264, 10.845676370488016 49.844527480702354, 5.735411345203829 45.247198802717776 C0.6251463199196419 40.6498701247332, -0.8776855384991282 33.36372974747579, 0.5057165963203616 27.61428552071682 C1.8891187311398514 21.864841293957852, 7.181492544801977 15.130777475177169, 14.035824154120768 10.750533442163963 C20.89015576343956 6.370289409150758, 36.489290339010246 2.8765719177795015, 41.6317062522331 1.3328213226375887 C46.77412216545596 -0.21092927250432436, 44.23533383010824 1.5259562929931605, 44.89031963345789 1.4880298713124844 C45.545305436807546 1.4501034496318084, 45.08771254408827 0.5454650887324686, 45.56162107233101 1.1052627925535319" stroke="#000000" stroke-width="1" fill="none"></path></g><g transform="translate(171.9285714285715 104.07142857142844) rotate(0 38.5 16)"><text x="38.5" y="23" font-family="Virgil, Segoe UI Emoji" font-size="20px" fill="#000000" text-anchor="middle" style="white-space: pre;" direction="ltr">Develop</text></g><g transform="translate(229.71428571428578 214.3571428571429) rotate(0 59.285714285714306 30)"><path d="M66.32110265938076 0.7038173069959548 C76.41261701742471 0.9153267692385393, 87.87047872113351 3.418762289077226, 95.9507581628815 6.739691862081262 C104.03103760462949 10.060621435085299, 111.29150720159525 15.358987204858375, 114.80277930986873 20.62939474502017 C118.3140514181422 25.89980228518197, 119.75590749532688 33.064606470203444, 117.01839081252234 38.36213710305204 C114.2808741297178 43.65966773590064, 106.52877861907281 48.92729817570196, 98.37767921304149 52.414578542111784 C90.22657980701017 55.90185890852161, 78.53867108080905 58.39217776919081, 68.11179437633439 59.28581930151101 C57.68491767185972 60.179460833831214, 45.49398537483995 60.06899947775601, 35.8164189861935 57.776427736032986 C26.138852597547043 55.48385599430996, 16.083292344013234 50.227189601058974, 10.046396044455655 45.53038885117286 C4.0094997448980765 40.83358810128674, -0.1577181042120396 35.0050248181889, -0.4049588111519711 29.5956232367163 C-0.6521995180919026 24.186221655243703, 2.817538051799051 17.635903159464807, 8.562951802816066 13.073979362337276 C14.308365553833081 8.512055565209746, 23.799428296316243 4.262448346694825, 34.06752369495012 2.2240804539511245 C44.33561909358399 0.1857125612074242, 63.06276681309621 1.0669402485229262, 70.17152419461931 0.8437720058750742 C77.2802815761424 0.6206037632272222, 76.78822823441074 0.2804086140585694, 76.7200679840887 0.8850709980640126 M77.33988474226133 0.8232893040515563 C87.42610920457527 1.8558196881673308, 98.79835167956917 6.450516437506981, 105.38942938794511 10.872954972814519 C111.98050709632106 15.295393508122057, 115.94597713278242 21.72297704981478, 116.88635099251704 27.35792051589678 C117.82672485225166 32.99286398197878, 115.70316661371687 39.92178153395199, 111.03167254635287 44.68261576930651 C106.36017847898886 49.443450004661024, 97.90361593945677 53.34866841187945, 88.85738658833301 55.922925928023886 C79.81115723720926 58.49718344416832, 67.60524649320124 60.170477732723356, 56.75429643961031 60.128160866173104 C45.90334638601938 60.08584399962285, 32.32452881941623 58.98643689554638, 23.75168626678743 55.66902472872236 C15.178843714158633 52.35161256189834, 8.982463463665145 45.62337183841511, 5.317241123837519 40.223687865228975 C1.6520187840098934 34.82400389204284, -0.4015631590175617 28.428502043551195, 1.7603522278216772 23.270920889605527 C3.922267614660916 18.11333973565986, 10.849157192184865 13.151472711172314, 18.288733444872953 9.278200941554967 C25.72830969756104 5.404929171937621, 36.68412178150792 1.3628531988029113, 46.397809743950205 0.0312902719014474 C56.11149770639249 -1.3002726550000165, 71.59741741073125 0.8176403616733843, 76.57086121952668 1.2888233801461837 C81.5443050283221 1.7600063986189831, 76.08069595143608 2.4046301070044804, 76.23847259672272 2.8583883827382444" stroke="#000000" stroke-width="1" fill="none"></path></g><g transform="translate(266.0000000000001 228.3571428571429) rotate(0 23 16)"><text x="23" y="23" font-family="Virgil, Segoe UI Emoji" font-size="20px" fill="#000000" text-anchor="middle" style="white-space: pre;" direction="ltr">Build</text></g><g transform="translate(55.42857142857156 218.64285714285666) rotate(0 55 26.428571428571445)"><path d="M32.44671671578379 3.0067166788585666 C41.051909696531496 0.8453506810534965, 54.9569119261405 0.3962410978309716, 65.0551108231331 1.11521442532948 C75.1533097201257 1.8341877528279884, 85.77377654712596 3.932037667083291, 93.03591009773942 7.320556643849617 C100.29804364835287 10.709075620615943, 106.62323958731372 16.416071269950912, 108.62791212681387 21.446328285927436 C110.63258466631402 26.47658530190396, 108.9756039628092 33.05320202907815, 105.06394533474028 37.50209873970875 C101.15228670667136 41.95099545033935, 93.90212363897791 45.66939430366688, 85.15796035840037 48.13970854971103 C76.41379707782284 50.610022795755185, 63.10862079402986 52.42083113364544, 52.598965651275016 52.323984215973674 C42.08931050852017 52.227137298301905, 30.31669704169267 50.585420006308105, 22.100029501871305 47.55862704368042 C13.883361962049939 44.53183408105273, 6.691826952891033 38.85159417074853, 3.2989604123468226 34.16322644020753 C-0.09390612819738697 29.474858709666535, -1.0838848443092366 24.144349385621645, 1.7428302586060482 19.42842066043444 C4.5695453615213335 14.712491935247234, 13.452579374299358 8.992652489015676, 20.25925102983853 5.867654089084294 C27.065922685377704 2.7426556891529112, 37.09602540733748 1.581666424583751, 42.582860191841085 0.6784302608461452 C48.06969497634469 -0.22480590289146052, 53.02419288822021 0.07881204877977349, 53.180259736860165 0.44823710665865946 M51.809932748861435 -1.3279406632595645 C61.60945356116919 -1.7978142822329382, 75.1915438089916 1.316112897232303, 83.8873534281543 4.20347058998917 C92.583163047317 7.0908282827460365, 99.93649095701957 11.392763569324245, 103.98479046383764 15.996205493281636 C108.03308997065571 20.599647417239026, 109.77838435282304 27.029451923896683, 108.1771504690627 31.82412213373351 C106.57591658530235 36.618792343570334, 101.47749844746525 41.37565543291731, 94.37738716127555 44.76422675230259 C87.27727587508585 48.15279807168787, 75.42679579259467 51.13559239224655, 65.5764827519245 52.15555005004519 C55.726169711254336 53.175507707843835, 44.75212159917337 52.510311973942464, 35.27550891725454 50.883972699094464 C25.79889623533571 49.257633424246464, 14.41026154959339 46.52399315895943, 8.716806660411535 42.397514400957185 C3.023351771229682 38.27103564295494, 0.8573498268230726 31.298951611390528, 1.1147795821634219 26.125100151080986 C1.3722093375037712 20.951248690771443, 4.68447885602528 15.210660349287943, 10.26138519245363 11.354405639099932 C15.838291528881982 7.498150928911921, 27.799400645622836 4.859905352504024, 34.57621760073352 2.987571889952921 C41.353034555844204 1.1152384274018183, 48.284577987355966 0.3322039050378359, 50.922286923117746 0.12040486379331483 C53.559995858879525 -0.09139417745120623, 50.15034903465262 1.1766582043817633, 50.40247121530419 1.7167776424857948" stroke="#000000" stroke-width="1" fill="none"></path></g><g transform="translate(87.92857142857156 229.0714285714282) rotate(0 22.5 16)"><text x="22.5" y="23" font-family="Virgil, Segoe UI Emoji" font-size="20px" fill="#000000" text-anchor="middle" style="white-space: pre;" direction="ltr">Test</text></g><g><g transform="translate(238.2857142857144 151.5) rotate(0 11.392966846216993 26.978855679261414)"><path d="M-0.5669393341988325 0.471398888155818 C3.4461349213584507 9.502598417780929, 19.32990230195932 44.13306549828317, 23.352873026632814 53.276725736526444 M1.3362787860073149 -0.32672064090147623 C5.298195736920013 8.900226389977716, 19.024482141535355 45.30650167310428, 22.665085901987847 54.28443199942414" stroke="#000000" stroke-width="1" fill="none"></path></g><g transform="translate(238.2857142857144 151.5) rotate(0 11.392966846216993 26.978855679261414)"><path d="M4.0119477919034985 32.986456767390635 C6.033059150192059 38.741180785333086, 14.117069248711013 43.720485888156205, 22.729468054619726 54.07532169284825 M2.4470724471576837 32.88869054216441 C6.0442216562017546 36.7647859163619, 11.893911621709933 40.17093671399842, 23.34990977916598 53.41780726505969" stroke="#000000" stroke-width="1" fill="none"></path></g><g transform="translate(238.2857142857144 151.5) rotate(0 11.392966846216993 26.978855679261414)"><path d="M22.78092036340142 25.667512803203874 C20.25066341117047 33.08671072707739, 23.838835944664186 39.8191636426089, 22.729468054619726 54.07532169284825 M21.216045018655606 25.56974657797765 C20.975597961730546 30.888254032031966, 23.03734207081996 35.771510907632646, 23.34990977916598 53.41780726505969" stroke="#000000" stroke-width="1" fill="none"></path></g></g><g><g transform="translate(219.71428571428578 248.6428571428571) rotate(0 -22.8572106351171 0.5730792573881445)"><path d="M0.17430461458861823 -0.5419491928070783 C-7.191232109797133 -0.8127910654991864, -37.12621117448872 -0.7776989858597516, -44.71520027619381 -0.5182464402168989 M-1.1933241920918227 1.787923535630107 C-8.708788985592257 2.1892574279755355, -38.91609091004795 1.177585834786296, -45.8887258848228 0.7470994298905134" stroke="#000000" stroke-width="1" fill="none"></path></g><g transform="translate(219.71428571428578 248.6428571428571) rotate(0 -22.8572106351171 0.5730792573881445)"><path d="M-25.675858103385128 -6.6332247229842345 C-30.991203396477857 -5.967143253506678, -33.85250171048054 -2.8453274288768893, -44.322651679260325 0.7150761359930038 M-25.106079784868218 -6.864011593217949 C-28.35342966629744 -3.8389560476617657, -34.43699641416357 -3.6489152768255035, -46.42234942280282 0.2052975963428616" stroke="#000000" stroke-width="1" fill="none"></path></g><g transform="translate(219.71428571428578 248.6428571428571) rotate(0 -22.8572106351171 0.5730792573881445)"><path d="M-26.33222375111337 8.499153410539018 C-31.6187817302198 5.282801183369431, -34.31172115780204 4.523136707695879, -44.322651679260325 0.7150761359930038 M-25.76244543259646 8.268366540305303 C-28.949271381006266 8.115382041611024, -34.89488384442878 5.124914501925971, -46.42234942280282 0.2052975963428616" stroke="#000000" stroke-width="1" fill="none"></path></g></g><g><g transform="translate(122.57142857142867 205.78571428571422) rotate(0 18.669421268297086 -23.151706715832916)"><path d="M-0.23739440627396102 0.7346147496253252 C6.152534985382639 -7.212292023056315, 32.52540327975791 -39.00113994803809, 39.160007735501424 -47.03802818129102 M-1.8211651989072561 0.07468354783952247 C4.390455834556901 -7.7149815322990865, 31.662621132678208 -37.708161632535685, 38.52096633301248 -45.445567725247535" stroke="#000000" stroke-width="1" fill="none"></path></g><g transform="translate(122.57142857142867 205.78571428571422) rotate(0 18.669421268297086 -23.151706715832916)"><path d="M28.553421755496746 -16.630427080952472 C31.477291403431845 -26.177833834454713, 34.852233709652396 -38.005298784194544, 37.269042784954806 -45.04715601729492 M26.51480232196707 -16.82910299189473 C30.165818988696174 -26.155130906977845, 33.198869480633235 -33.74335242672262, 38.29778944482227 -46.417137554867956" stroke="#000000" stroke-width="1" fill="none"></path></g><g transform="translate(122.57142857142867 205.78571428571422) rotate(0 18.669421268297086 -23.151706715832916)"><path d="M13.280366481716829 -30.336403331840366 C21.903848835330017 -34.804734970504214, 30.904915548687015 -41.58333928781156, 37.269042784954806 -45.04715601729492 M11.241747048187154 -30.535079242782622 C19.397912428104338 -35.88435491008501, 26.80788041594365 -39.544748881538254, 38.29778944482227 -46.417137554867956" stroke="#000000" stroke-width="1" fill="none"></path></g></g><g transform="translate(619.7857142857144 138.64285714285734) rotate(0 13.5 16)"><text x="13.5" y="23" font-family="Virgil, Segoe UI Emoji" font-size="20px" fill="#000000" text-anchor="middle" style="white-space: pre;" direction="ltr">CI</text></g><g transform="translate(979.5714285714292 127.85714285714289) rotate(0 55 32)"><text x="55" y="23" font-family="Virgil, Segoe UI Emoji" font-size="20px" fill="#000000" text-anchor="middle" style="white-space: pre;" direction="ltr">Translation</text><text x="55" y="55" font-family="Virgil, Segoe UI Emoji" font-size="20px" fill="#000000" text-anchor="middle" style="white-space: pre;" direction="ltr">Vendor</text></g></svg>