<?xml version="1.0" encoding="UTF-8" standalone="no"?>
<!-- Created with Inkscape (http://www.inkscape.org/) -->

<svg
   xmlns:dc="http://purl.org/dc/elements/1.1/"
   xmlns:cc="http://creativecommons.org/ns#"
   xmlns:rdf="http://www.w3.org/1999/02/22-rdf-syntax-ns#"
   xmlns:svg="http://www.w3.org/2000/svg"
   xmlns="http://www.w3.org/2000/svg"
   xmlns:sodipodi="http://sodipodi.sourceforge.net/DTD/sodipodi-0.dtd"
   xmlns:inkscape="http://www.inkscape.org/namespaces/inkscape"
   width="1000"
   height="277.32422"
   viewBox="0 0 264.58333 73.375368"
   version="1.1"
   id="svg8"
   inkscape:version="0.92.4 (5da689c313, 2019-01-14)"
   sodipodi:docname="A.svg">
  <defs
     id="defs2" />
  <sodipodi:namedview
     id="base"
     pagecolor="#ffffff"
     bordercolor="#666666"
     borderopacity="1.0"
     inkscape:pageopacity="0.0"
     inkscape:pageshadow="2"
     inkscape:zoom="0.35"
     inkscape:cx="1386.2882"
     inkscape:cy="-440.96428"
     inkscape:document-units="px"
     inkscape:current-layer="layer1"
     showgrid="false"
     units="px"
     inkscape:window-width="1920"
     inkscape:window-height="1017"
     inkscape:window-x="1912"
     inkscape:window-y="-8"
     inkscape:window-maximized="1"
     fit-margin-top="0"
     fit-margin-left="0"
     fit-margin-right="0"
     fit-margin-bottom="0" />
  <metadata
     id="metadata5">
    <rdf:RDF>
      <cc:Work
         rdf:about="">
        <dc:format>image/svg+xml</dc:format>
        <dc:type
           rdf:resource="http://purl.org/dc/dcmitype/StillImage" />
        <dc:title></dc:title>
      </cc:Work>
    </rdf:RDF>
  </metadata>
  <g
     inkscape:label="Layer 1"
     inkscape:groupmode="layer"
     id="layer1"
     transform="translate(260.95542,41.213839)">
    <path
       style="opacity:1;fill:#5f01d1;fill-opacity:1;stroke:none;stroke-width:0.08756009;stroke-linecap:butt;stroke-linejoin:round;stroke-miterlimit:2.61310005;stroke-dasharray:none;stroke-opacity:1"
       d="m -260.95542,-23.351576 h 15.74097 l 9.16577,23.44971543 9.28475,-23.44971543 h 15.32641 l -23.07818,55.513102 h -15.42354 l 6.31728,-14.710096 z"
       id="path1139"
       inkscape:connector-curvature="0"
       sodipodi:nodetypes="ccccccccc" />
    <path
       inkscape:connector-curvature="0"
       style="opacity:1;fill:#5f01d1;fill-opacity:1;stroke:none;stroke-width:0.08756009;stroke-linecap:butt;stroke-linejoin:round;stroke-miterlimit:2.61310005;stroke-dasharray:none;stroke-opacity:1"
       d="m -195.47141,-24.285092 c -11.82693,0 -19.30359,10.60691 -19.30359,21.1697058 0,11.886248 8.19723,21.3099212 19.07922,21.3099212 8.11755,0 11.17827,-4.945745 11.17827,-4.945745 v 3.852645 h 13.72915 v -40.452766 h -13.72915 v 3.677524 c 0,0 -3.41477,-4.611285 -10.9539,-4.611285 z m 2.92026,12.999928 c 5.45704,0 8.27307,4.3180081 8.27307,8.2142225 0,4.1954942 -3.01696,8.3127463 -8.27307,8.3127463 -4.35623,0 -8.29289,-3.559984 -8.29289,-8.1341932 0,-4.6389336 3.16648,-8.3927756 8.29289,-8.3927756 z"
       id="path1141" />
    <path
       style="opacity:1;fill:#5f01d1;fill-opacity:1;stroke:none;stroke-width:0.08756009;stroke-linecap:butt;stroke-linejoin:round;stroke-miterlimit:2.61310005;stroke-dasharray:none;stroke-opacity:1"
       d="m -166.06011,17.10119 v -58.315029 h 14.35985 v 21.680094 c 0,0 3.41082,-4.746342 10.5543,-4.746342 8.73797,0 13.85746,6.510502 13.85746,15.813727 v 25.56755 h -14.25479 V -4.9639552 c 0,-3.148416 -1.49969,-6.1899038 -4.89676,-6.1899038 -3.45803,0 -5.26021,3.0875793 -5.26021,6.1899038 V 17.10119 Z"
       id="path1145"
       inkscape:connector-curvature="0"
       sodipodi:nodetypes="ccccccccccccc" />
    <path
       inkscape:connector-curvature="0"
       style="opacity:1;fill:#5f01d1;fill-opacity:1;stroke:none;stroke-width:0.08756009;stroke-linecap:butt;stroke-linejoin:round;stroke-miterlimit:2.61310005;stroke-dasharray:none;stroke-opacity:1"
       d="m -102.80546,-24.280304 c -13.54405,0 -21.60888,10.298919 -21.60888,21.3332079 0,12.5572045 9.76468,21.1416311 21.66017,21.1416311 11.529646,0 21.618462,-8.1948543 21.618462,-20.9309613 0,-13.9356097 -10.563298,-21.5438777 -21.669752,-21.5438777 z m 0.12933,13.114187 c 4.784243,0 8.094514,3.9847543 8.094514,8.2340454 0,3.62432286 -3.084573,8.0945471 -8.094514,8.0945471 -4.5906,0 -8.03569,-3.6823588 -8.03569,-8.1341932 0,-4.2885533 2.86425,-8.1943993 8.03569,-8.1943993 z"
       id="path1147" />
    <path
       id="path1153"
       d="m -57.212888,-24.280304 c -13.544038,0 -21.608877,10.298919 -21.608877,21.3332079 0,12.5572045 9.764684,21.1416311 21.660172,21.1416311 11.529647,0 21.618463,-8.1948543 21.618463,-20.9309613 0,-13.9356097 -10.563285,-21.5438777 -21.669758,-21.5438777 z m 0.12933,13.114187 c 4.784232,0 8.094517,3.9847543 8.094517,8.2340454 0,3.62432286 -3.084586,8.0945471 -8.094517,8.0945471 -4.59061,0 -8.035691,-3.6823588 -8.035691,-8.1341932 0,-4.2885533 2.864249,-8.1943993 8.035691,-8.1943993 z"
       style="opacity:1;fill:#5f01d1;fill-opacity:1;stroke:none;stroke-width:0.08756009;stroke-linecap:butt;stroke-linejoin:round;stroke-miterlimit:2.61310005;stroke-dasharray:none;stroke-opacity:1"
       inkscape:connector-curvature="0" />
    <circle
       style="opacity:1;fill:#5f01d1;fill-opacity:1;stroke:none;stroke-width:0.08829153;stroke-linecap:butt;stroke-linejoin:round;stroke-miterlimit:2.61310005;stroke-dasharray:none;stroke-opacity:1"
       id="path1155"
       cx="-24.212173"
       cy="8.4245415"
       r="9.5354834" />
    <path
       style="opacity:1;fill:#5f01d1;fill-opacity:1;stroke:none;stroke-width:0.08756009;stroke-linecap:butt;stroke-linejoin:round;stroke-miterlimit:2.61310005;stroke-dasharray:none;stroke-opacity:1"
       d="M -11.543414,-4.6137152 H -28.709769 L -13.474345,-41.213839 H 3.627914 Z"
       id="path1157"
       inkscape:connector-curvature="0"
       sodipodi:nodetypes="ccccc" />
  </g>
</svg>
