<?xml version="1.0" encoding="utf-8"?>
<!-- Generator: Adobe Illustrator 16.0.4, SVG Export Plug-In . SVG Version: 6.00 Build 0)  -->
<!DOCTYPE svg PUBLIC "-//W3C//DTD SVG 1.1//EN" "http://www.w3.org/Graphics/SVG/1.1/DTD/svg11.dtd">
<svg version="1.1" xmlns="http://www.w3.org/2000/svg" xmlns:xlink="http://www.w3.org/1999/xlink" x="0px" y="0px"
	 width="595.615px" height="226.213px" viewBox="0 0 595.615 226.213" enable-background="new 0 0 595.615 226.213"
	 xml:space="preserve">
<g id="Layer_2">
</g>
<g id="Logo">
	<path fill-rule="evenodd" clip-rule="evenodd" fill="#E24B31" d="M411.503,169.396c0,0-2.75-9.75,7.5-28.5s18.25-8.5,18.25-8.5
		s8.75,9.5-1.25,23.75S411.503,169.396,411.503,169.396z M332.753,182.896c-11.75,30.75-40.25,18.25-40.25,18.25s-3.25-11,6-41.75
		s31-18.75,31-18.75S344.503,152.146,332.753,182.896z M311.503,54.146c0,0,17.75-46.25,22-23.75s-37.25,89.5-37.25,89.5
		C296.753,104.896,311.503,54.146,311.503,54.146z M57.752,169.396c0.75-29.75,20.25-42.75,27-36.25s4.25,20.5-8.5,29.25
		C63.502,171.146,57.752,169.396,57.752,169.396z M595.503,164.457c-1-10-10-6.28-10-6.28s-14.5,11.24-27.25,9.99
		s-8.75-29.76-8.75-29.76s2.75-26.13-4.75-28.32s-16.75,6.81-16.75,6.81s-11.5,12.75-17,29l-1.5,0.5c0,0,1.75-28.5-0.25-35
		c-1.5-3.25-15.25-3-17.5,2.75s-13.25,45.75-14,62.5c0,0-21.5,18.25-40.25,21.25s-23.25-8.75-23.25-8.75s51-14.25,49.25-55
		s-41.13-25.68-45.58-22.33c-4.311,3.24-27.33,17.12-34.04,55.56c-0.23,1.31-0.63,7.02-0.63,7.02s-19.75,13.25-30.75,16.75
		c0,0,30.75-51.75-6.75-75.25c-17-10.25-30.5,11.25-30.5,11.25s50.75-56.5,39.5-104.25c-5.36-22.74-16.721-25.18-27.16-21.5
		c-15.84,6.25-21.84,15.5-21.84,15.5s-20.5,29.75-25.25,74s-11.75,97.75-11.75,97.75s-9.75,9.5-18.75,10s-5-26.75-5-26.75
		s7-41.5,6.5-48.5s-1-10.75-9.25-13.25s-17.25,8-17.25,8s-23.75,36-25.75,41.5l-1.25,2.25l-1.25-1.5c0,0,16.75-49,0.75-49.75
		s-26.5,17.5-26.5,17.5s-18.25,30.5-19,34l-1.25-1.5c0,0,7.5-35.5,6-44.25s-9.75-7-9.75-7s-10.5-1.25-13.25,5.5
		s-12.75,51.5-14,65.75c0,0-26.25,18.75-43.5,19c-17.25,0.25-15.5-10.94-15.5-10.94s63.25-21.65,46-64.4
		c-7.75-11-16.75-14.46-29.5-14.21c-12.75,0.25-28.57,8.03-38.82,31.03c-4.9,10.97-6.68,21.38-7.68,29.26c0,0-11.07,2.26-17.07-2.74
		s-9.09,0-9.09,0s-10.3,13.13-0.05,17.13s26.25,5.87,26.25,5.87h-0.01c1.47,7,5.75,18.89,18.23,28.37
		c18.75,14.25,54.74-1.31,54.74-1.31l14.75-8.28c0,0,0.5,13.53,11.25,15.51c10.75,1.97,15.25-0.03,34-45.53
		c11-23.25,11.75-22.01,11.75-22.01l1.25-0.25c0,0-8.5,44.5-5.25,56.5s17.5,10.75,17.5,10.75s7.75,1.5,14-20.5
		s18.25-46.25,18.25-46.25h1.5c0,0-5.25,45.5,2.75,60s28.75,4.88,28.75,4.88s14.5-7.32,16.75-9.57c0,0,17.21,14.65,41.49,11.99
		c54.26-10.68,73.56-25.1,73.56-25.1s9.32,23.62,38.2,25.81c33,2.5,51-18.26,51-18.26s-0.25,13.5,11.25,18.25
		s19.25-21.94,19.25-21.94l19.25-53.06h1.75c0,0,1,34.5,20,40s43.75-12.88,43.75-12.88S596.503,174.457,595.503,164.457z"/>
</g>
</svg>
