<svg xmlns="http://www.w3.org/2000/svg" xmlns:xlink="http://www.w3.org/1999/xlink" version="1.1" x="0px" y="0px" width="790px" height="170px" viewBox="0 0 790 170" enable-background="new 0 0 790 170" xml:space="preserve">
    <g xmlns="http://www.w3.org/2000/svg" id="Finish_Elements_Layer">
        <g>
            <path fill="#FFFFFF" d="M208.2,10.049v9.744H143.52v43.344h57.456v9.744H143.52V130h-11.424V10.049H208.2z"/>
            <path fill="#FFFFFF" d="M267.754,44.488c5.096,2.465,9.379,5.77,12.853,9.912c3.47,4.145,6.103,8.988,7.896,14.532    c1.79,5.544,2.688,11.452,2.688,17.724c0,6.273-0.898,12.18-2.688,17.725c-1.793,5.543-4.426,10.389-7.896,14.531    c-3.474,4.145-7.757,7.422-12.853,9.828c-5.098,2.407-10.948,3.612-17.556,3.612c-6.609,0-12.461-1.205-17.556-3.612    c-5.099-2.406-9.382-5.684-12.853-9.828c-3.473-4.143-6.105-8.988-7.896-14.531c-1.793-5.545-2.688-11.451-2.688-17.725    c0-6.271,0.896-12.18,2.688-17.724c1.79-5.544,4.423-10.388,7.896-14.532c3.471-4.143,7.754-7.447,12.853-9.912    c5.095-2.462,10.946-3.695,17.556-3.695C256.806,40.793,262.656,42.026,267.754,44.488z M236.926,52.889    c-3.809,2.129-6.972,4.93-9.491,8.4c-2.521,3.473-4.426,7.42-5.713,11.844c-1.288,4.426-1.932,8.933-1.932,13.523    c0,4.594,0.644,9.102,1.932,13.524c1.287,4.426,3.192,8.374,5.713,11.844c2.52,3.474,5.683,6.274,9.491,8.399    c3.807,2.129,8.232,3.193,13.272,3.193s9.463-1.064,13.271-3.193c3.807-2.125,6.973-4.926,9.492-8.399    c2.521-3.47,4.424-7.418,5.712-11.844c1.286-4.423,1.933-8.931,1.933-13.524c0-4.591-0.646-9.098-1.933-13.523    c-1.288-4.424-3.191-8.371-5.712-11.844c-2.52-3.471-5.686-6.271-9.492-8.4c-3.809-2.127-8.231-3.192-13.271-3.192    S240.732,50.762,236.926,52.889z"/>
            <path fill="#FFFFFF" d="M313.366,43.312v20.328h0.336c2.688-7.057,6.859-12.487,12.516-16.296    c5.654-3.807,12.403-5.544,20.244-5.208v10.584c-4.816-0.223-9.185,0.42-13.104,1.932c-3.922,1.512-7.309,3.67-10.164,6.469    c-2.856,2.801-5.069,6.131-6.637,9.996c-1.569,3.863-2.352,8.092-2.352,12.684V130h-10.584V43.312H313.366z"/>
            <path fill="#FFFFFF" d="M366.284,43.312v14.616h0.504c2.798-5.376,6.468-9.576,11.004-12.601    c4.536-3.023,10.332-4.535,17.388-4.535c5.712,0,10.892,1.401,15.54,4.199c4.646,2.801,7.755,7.057,9.324,12.768    c2.575-5.711,6.384-9.967,11.424-12.768c5.04-2.798,10.416-4.199,16.128-4.199c19.152,0,28.729,10.137,28.729,30.408V130H465.74    V71.705c0-7.167-1.513-12.627-4.536-16.381c-3.024-3.751-8.345-5.628-15.96-5.628c-4.594,0-8.4,0.869-11.424,2.604    c-3.024,1.737-5.435,4.061-7.225,6.972c-1.793,2.913-3.053,6.245-3.779,9.996c-0.73,3.754-1.093,7.644-1.093,11.676V130H411.14    V71.201c0-2.912-0.31-5.684-0.924-8.316c-0.617-2.631-1.625-4.928-3.023-6.889c-1.402-1.958-3.276-3.498-5.629-4.619    c-2.352-1.119-5.207-1.681-8.567-1.681c-4.481,0-8.374,0.813-11.676,2.437c-3.306,1.625-5.993,3.863-8.064,6.72    c-2.073,2.856-3.612,6.216-4.62,10.08s-1.512,8.093-1.512,12.685V130H356.54V43.312H366.284z"/>
            <path fill="#FFFFFF" d="M498.666,56.752c1.791-3.695,4.227-6.719,7.309-9.071c3.079-2.353,6.69-4.087,10.836-5.208    c4.142-1.119,8.735-1.68,13.775-1.68c3.807,0,7.615,0.364,11.425,1.092c3.806,0.729,7.224,2.1,10.248,4.115    c3.023,2.017,5.485,4.846,7.392,8.484c1.903,3.641,2.855,8.374,2.855,14.196v46.032c0,4.258,2.071,6.384,6.217,6.384    c1.23,0,2.352-0.224,3.359-0.673v8.904c-1.233,0.227-2.325,0.395-3.275,0.504c-0.953,0.113-2.158,0.168-3.612,0.168    c-2.688,0-4.846-0.361-6.468-1.092c-1.625-0.727-2.885-1.764-3.78-3.107c-0.897-1.344-1.485-2.94-1.764-4.788    c-0.281-1.849-0.42-3.891-0.42-6.132h-0.336c-1.906,2.801-3.838,5.291-5.797,7.476c-1.96,2.185-4.145,4.006-6.552,5.46    c-2.409,1.457-5.152,2.575-8.231,3.359c-3.082,0.783-6.749,1.177-11.004,1.177c-4.032,0-7.812-0.478-11.341-1.429    c-3.527-0.949-6.609-2.461-9.239-4.535c-2.633-2.071-4.704-4.704-6.217-7.896c-1.512-3.191-2.268-6.972-2.268-11.34    c0-6.048,1.344-10.778,4.032-14.195c2.688-3.416,6.242-6.02,10.668-7.812c4.423-1.791,9.408-3.051,14.952-3.78    c5.544-0.728,11.172-1.428,16.884-2.1c2.239-0.224,4.2-0.505,5.88-0.841s3.079-0.924,4.2-1.764    c1.118-0.84,1.987-1.986,2.604-3.443c0.614-1.455,0.924-3.36,0.924-5.713c0-3.582-0.588-6.522-1.764-8.819    c-1.176-2.294-2.801-4.116-4.872-5.46c-2.073-1.344-4.48-2.268-7.224-2.771c-2.746-0.504-5.686-0.757-8.82-0.757    c-6.72,0-12.209,1.597-16.464,4.788c-4.258,3.191-6.497,8.316-6.72,15.372h-10.584C495.811,64.816,496.873,60.449,498.666,56.752z     M551.586,82.625c-0.672,1.233-1.961,2.129-3.863,2.688c-1.906,0.562-3.586,0.953-5.04,1.176c-4.481,0.785-9.102,1.486-13.86,2.1    c-4.762,0.617-9.101,1.541-13.02,2.772c-3.922,1.233-7.141,2.998-9.66,5.292c-2.521,2.297-3.78,5.573-3.78,9.828    c0,2.688,0.53,5.068,1.596,7.141c1.063,2.073,2.491,3.863,4.284,5.375c1.79,1.512,3.864,2.662,6.216,3.444    c2.353,0.785,4.76,1.177,7.225,1.177c4.031,0,7.896-0.615,11.592-1.849c3.696-1.231,6.914-3.024,9.66-5.376    c2.743-2.352,4.927-5.208,6.552-8.568c1.622-3.359,2.436-7.166,2.436-11.424V82.625H551.586z"/>
            <path fill="#FFFFFF" d="M618.113,43.312v8.904h-17.64v58.464c0,3.473,0.476,6.189,1.428,8.147c0.95,1.961,3.331,3.053,7.141,3.276    c3.023,0,6.048-0.168,9.071-0.504v8.903c-1.569,0-3.137,0.056-4.703,0.168c-1.57,0.111-3.138,0.168-4.704,0.168    c-7.057,0-11.986-1.369-14.784-4.115c-2.801-2.743-4.145-7.812-4.032-15.204V52.217h-15.12v-8.904h15.12v-26.04h10.584v26.04    H618.113z"/>
            <path fill="#6F3C97" d="M645.832,111.353V130h-18.647v-18.647H645.832z"/>
            <path opacity="0.5" fill="#FFFFFF" d="M702.508,42.179v63.345c0,4.511-0.451,8.406-1.353,11.686    c-0.903,3.28-2.358,5.986-4.366,8.117c-2.011,2.134-4.634,3.732-7.872,4.797c-3.24,1.064-7.238,1.6-11.993,1.6    c-5.002,0-9.102-0.842-12.3-2.521s-5.7-3.895-7.503-6.643c-1.805-2.746-3.034-5.923-3.689-9.532    c-0.657-3.607-0.984-7.337-0.984-11.192h8.364c0.08,1.887,0.203,4.141,0.369,6.765c0.163,2.625,0.737,5.126,1.722,7.503    c0.984,2.379,2.603,4.408,4.858,6.088c2.254,1.682,5.555,2.521,9.901,2.521c3.279,0,5.985-0.43,8.118-1.291    c2.131-0.861,3.812-2.214,5.043-4.059c1.23-1.846,2.091-4.201,2.583-7.072c0.492-2.87,0.738-6.314,0.738-10.332V42.179H702.508z"/>
            <path opacity="0.5" fill="#FFFFFF" d="M726.247,112.412c1.477,3.034,3.506,5.453,6.089,7.256c2.583,1.805,5.637,3.097,9.163,3.875    c3.525,0.78,7.298,1.168,11.316,1.168c2.295,0,4.797-0.326,7.503-0.983c2.706-0.655,5.228-1.7,7.564-3.137    c2.337-1.434,4.284-3.278,5.843-5.534c1.557-2.255,2.337-4.982,2.337-8.18c0-2.461-0.554-4.592-1.661-6.396    c-1.106-1.803-2.542-3.32-4.305-4.551c-1.765-1.23-3.711-2.233-5.843-3.014c-2.133-0.778-4.224-1.414-6.272-1.906l-19.558-4.797    c-2.542-0.656-5.023-1.477-7.441-2.461c-2.419-0.983-4.531-2.294-6.334-3.936c-1.805-1.639-3.26-3.647-4.366-6.027    c-1.107-2.377-1.661-5.289-1.661-8.732c0-2.131,0.409-4.632,1.23-7.503c0.818-2.87,2.355-5.575,4.612-8.118    c2.254-2.541,5.351-4.693,9.286-6.457c3.937-1.763,8.979-2.645,15.129-2.645c4.346,0,8.487,0.574,12.424,1.722    c3.936,1.149,7.38,2.871,10.331,5.166c2.952,2.296,5.309,5.146,7.073,8.548c1.762,3.404,2.645,7.361,2.645,11.87h-8.364    c-0.165-3.361-0.923-6.292-2.275-8.794c-1.354-2.501-3.117-4.592-5.289-6.273c-2.174-1.68-4.674-2.952-7.503-3.813    c-2.829-0.86-5.803-1.292-8.918-1.292c-2.871,0-5.639,0.309-8.302,0.924c-2.666,0.614-5.003,1.598-7.012,2.951    c-2.01,1.354-3.628,3.137-4.858,5.351c-1.229,2.214-1.845,4.962-1.845,8.241c0,2.051,0.348,3.834,1.045,5.351    c0.696,1.519,1.661,2.81,2.891,3.874c1.23,1.066,2.645,1.928,4.244,2.584c1.599,0.656,3.3,1.189,5.104,1.598l21.401,5.289    c3.115,0.821,6.047,1.826,8.795,3.014c2.746,1.189,5.166,2.666,7.257,4.428c2.091,1.766,3.73,3.918,4.92,6.458    c1.188,2.543,1.783,5.618,1.783,9.226c0,0.983-0.104,2.297-0.307,3.936c-0.206,1.641-0.698,3.383-1.477,5.228    c-0.78,1.845-1.887,3.711-3.321,5.597c-1.436,1.887-3.403,3.588-5.903,5.104c-2.503,1.519-5.597,2.748-9.287,3.69    c-3.689,0.941-8.117,1.414-13.283,1.414s-9.964-0.596-14.392-1.783s-8.2-3.014-11.315-5.475c-3.117-2.459-5.517-5.615-7.196-9.471    c-1.682-3.854-2.398-8.486-2.152-13.898h8.364C724.073,105.605,724.771,109.379,726.247,112.412z"/>
        </g>
        <path fill="none" d="M17.244,125.913"/>
        <rect x="-0.103" y="10" fill="#6F3C97" width="110" height="120"/>
        <g>
            <path fill="#FFFFFF" d="M91.448,120.938c-0.134,0.448-0.358,0.849-0.672,1.2c-0.313,0.353-0.729,0.634-1.248,0.845    S88.367,123.3,87.6,123.3c-1.28,0-2.266-0.336-2.957-1.009c-0.691-0.672-1.037-1.66-1.037-2.966v-0.845h1.824v0.576    c0,0.396,0.032,0.762,0.096,1.094c0.064,0.333,0.176,0.621,0.336,0.864s0.385,0.432,0.672,0.566    c0.288,0.135,0.656,0.201,1.104,0.201c0.832,0,1.404-0.224,1.718-0.672c0.313-0.447,0.471-1.049,0.471-1.805v-10.021h1.824v10.29    C91.65,120.036,91.583,120.49,91.448,120.938z"/>
            <path fill="#FFFFFF" d="M101.508,111.156c-0.607-0.441-1.385-0.662-2.332-0.662c-0.384,0-0.762,0.038-1.133,0.115    s-0.701,0.205-0.988,0.384c-0.288,0.18-0.519,0.42-0.691,0.72c-0.173,0.301-0.26,0.676-0.26,1.123    c0,0.423,0.125,0.766,0.375,1.027c0.249,0.263,0.582,0.478,0.998,0.644s0.886,0.304,1.411,0.412    c0.524,0.109,1.059,0.228,1.604,0.355c0.543,0.128,1.077,0.278,1.603,0.451c0.524,0.173,0.995,0.406,1.411,0.701    c0.416,0.294,0.749,0.665,0.998,1.113c0.25,0.448,0.375,1.011,0.375,1.689c0,0.729-0.164,1.354-0.49,1.872    c-0.326,0.518-0.745,0.94-1.257,1.267c-0.513,0.326-1.085,0.563-1.719,0.71c-0.634,0.147-1.264,0.222-1.891,0.222    c-0.769,0-1.495-0.097-2.18-0.288c-0.685-0.192-1.286-0.483-1.804-0.874c-0.519-0.39-0.929-0.89-1.229-1.497    c-0.301-0.608-0.451-1.328-0.451-2.16h1.729c0,0.576,0.111,1.072,0.336,1.488c0.224,0.416,0.519,0.758,0.883,1.026    c0.365,0.27,0.79,0.468,1.276,0.596s0.985,0.191,1.498,0.191c0.409,0,0.822-0.038,1.238-0.114c0.415-0.077,0.79-0.208,1.123-0.394    c0.332-0.186,0.602-0.438,0.806-0.759c0.205-0.319,0.308-0.729,0.308-1.229c0-0.474-0.125-0.857-0.374-1.152    c-0.25-0.294-0.583-0.534-0.999-0.72s-0.886-0.336-1.411-0.451c-0.524-0.115-1.059-0.233-1.603-0.355    c-0.544-0.121-1.078-0.262-1.604-0.422c-0.524-0.16-0.995-0.371-1.411-0.634c-0.416-0.262-0.748-0.602-0.998-1.018    c-0.249-0.415-0.374-0.938-0.374-1.564c0-0.691,0.141-1.289,0.422-1.795s0.656-0.922,1.123-1.248    c0.468-0.326,0.999-0.569,1.594-0.729c0.596-0.16,1.206-0.24,1.834-0.24c0.703,0,1.356,0.084,1.958,0.25s1.129,0.429,1.584,0.787    c0.454,0.358,0.812,0.81,1.074,1.354c0.263,0.544,0.406,1.193,0.433,1.948h-1.728    C102.471,112.312,102.116,111.598,101.508,111.156z"/>
        </g>
        <g>
            <g>
                <path fill="#FFFFFF" d="M62.96,39.999V45.6H36.78v15.89h22.96v5.601H36.78v22.89h-6.65v-49.98H62.96z"/>
                <path fill="#FFFFFF" d="M82.42,53.789v5.25h-7.21V81.51c0,0.7,0.058,1.26,0.175,1.68c0.116,0.42,0.338,0.747,0.665,0.98     c0.326,0.233,0.781,0.385,1.365,0.454c0.583,0.07,1.341,0.105,2.274,0.105h2.73v5.25h-4.55c-1.54,0-2.859-0.105-3.955-0.315     c-1.098-0.21-1.984-0.595-2.66-1.154c-0.677-0.561-1.18-1.354-1.505-2.38c-0.327-1.026-0.49-2.381-0.49-4.061v-23.03H63.1v-5.25     h6.16v-10.85h5.95v10.85H82.42z"/>
            </g>
        </g>
    </g>
</svg>
